<?xml version="1.0" encoding="utf-8"?>
<!-- Generator: Adobe Illustrator 24.0.2, SVG Export Plug-In . SVG Version: 6.00 Build 0)  -->
<svg version="1.1" id="Layer_1" xmlns="http://www.w3.org/2000/svg" xmlns:xlink="http://www.w3.org/1999/xlink" x="0px" y="0px"
	 viewBox="0 0 383.1 383.7" style="enable-background:new 0 0 383.1 383.7;" xml:space="preserve">
<path d="M75.6,383.7c-2.8-1.9-3.7-4.5-3.7-7.9c0.1-16.2,0-32.4,0.1-48.6c0.1-16.4,7.8-28,22.8-34.5c17.1-7.4,34.3-14.7,51.4-22
	c7.7-3.3,9.8-6.4,9.8-14.9c0-5.5-0.1-11,0.1-16.5c0.1-2.3-0.7-3.5-2.6-4.7c-18.9-12.4-30-29.7-32.8-52.3c-0.3-2.6-1.5-2.5-3.4-2.7
	c-11.1-0.7-19-7.2-20.8-17c-2.3-12.5,7-23.7,20.2-24.2c2.7-0.1,5.5,0,8.2,0c4.6-0.1,6.5-1.8,7.2-6.4c1.2-7.8,4.8-11.4,12.5-12.5
	c32.5-4.6,62.6-15.6,90.4-33.1c1.5-0.9,2.9-2.1,4.7-2c2.4,0.1,4.3,1.3,5.2,3.6c0.9,2.5,0.3,4.8-1.8,6.3c-2.6,1.9-5.3,3.6-8,5.3
	c0.1,0.3,0,0.7,0.1,0.7c11.2,6.9,16.3,17,16.1,30c-0.1,5.8,2.1,7.8,7.9,7.9c2.1,0,4.3-0.4,6.3,0.1c4.4,1.1,4.5-1.1,4.6-4.6
	c0.5-18.1-2.8-35.1-12.8-50.6c-17.7-27.1-51-40.9-82.2-33.9c-32.6,7.3-56.9,33.6-61.2,66.1c-0.2,1.7-0.2,3.5-0.6,5.2
	c-0.7,3.5-3.1,5.2-6.4,4.8c-3-0.4-4.8-2.7-4.6-6.2c0.9-14.3,5.3-27.5,12.7-39.8c5.1-8.5,11.4-16,19.3-22.2c2.7-2.1,3.7-4.4,4.1-7.7
	c2.2-23.9,18.7-42.6,42-47.9c30.6-7,61.7,15.6,64.3,47c0.3,4.1,1.8,6.7,4.8,9.3c20.9,18,31.2,41.1,31.7,68.6c0,2.9,0.1,5.7,0,8.6
	c-0.1,5.2,0.4,9.8,3.4,14.7c7.5,12.4-1.7,28.6-16.4,29.5c-4,0.3-5.4,1.2-6,5.4c-3.3,21.5-14.5,38.1-32.7,49.9
	c-1.5,1-2.3,1.9-2.3,3.8c0.1,6.4,0.1,12.7,0.1,19.1c0,6,2.9,10,8.4,12.4c17.8,7.6,35.7,15.2,53.4,23c14.5,6.3,21.8,17.7,22.1,33.4
	c0.3,16.5,0,32.9,0.1,49.4c0,3.4-0.9,6-3.7,7.9c-1.5,0-3,0-4.5,0c-2.7-2.4-3.2-5.4-3.2-8.9c0.1-16.1,0.2-32.2,0-48.3
	c-0.1-10.9-5.1-18.8-15.2-23.2c-4.7-2.1-9.4-4-14-6c-6.4-2.7-12.7-5.5-19.5-8.4c0,15.2,0.1,29.7-0.1,44.3c0,2.7,0.5,4,3.3,5.1
	c9.1,3.4,15,12.8,14.7,22.3c-0.4,10-6.7,18.5-16,21.8c-1.3,0.5-3-0.1-4,1.2c-3,0-6,0-9,0c-2.7-2-6.1-2.5-8.7-4.6
	c-7.3-5.9-10.6-13.5-9.2-22.7c1.3-8.8,6.5-15,14.8-18.2c2.2-0.9,3.1-1.8,2.9-4.2c-0.2-3.7-0.1-7.5-0.1-11.2c0-9.8,0-19.6,0-29.4
	c-1.7,0-2.6,1-3.6,1.7c-11.2,7.4-22.4,14.8-33.5,22.4c-7.7,5.2-15.2,5.1-22.9-0.1c-11.1-7.6-22.3-15-33.5-22.4
	c-0.9-0.6-1.7-1.9-3.3-1.4c0,9.6,0,19.2,0,28.7c0,1.8,0.6,2.4,2.4,2.3c5.1-0.1,10.2-0.1,15.3,0c10.8,0.1,18.1,7.1,18.3,17.9
	c0.2,7.8,0.1,15.7,0,23.6c-0.1,7.6-3.8,12.9-10.5,16.3c-1.3,0.7-3,0-4,1.4c-1.7,0-3.5,0-5.2,0c-2.1-2-4.2-3.9-3.1-7.2
	c0.8-2.4,2.5-3.6,4.9-4c5.3-0.9,6.7-2.6,6.8-7.9c0-7.1,0.1-14.2,0-21.3c-0.1-5.3-2.3-7.5-7.5-7.5c-15.2,0-30.4,0-45.5,0
	c-5.4,0-7.6,2.3-7.7,7.8c0,6.8,0,13.7,0,20.5c0,5.7,1.4,7.3,7.1,8.4c2.3,0.4,3.9,1.7,4.6,3.9c0.6,2.1,0.2,4.2-1.5,5.8
	c-0.5,0.5-1.4,0.5-1.4,1.5c-2.2,0-4.5,0-6.7,0c-0.1-0.6-0.6-0.7-1.1-0.8c-8.5-3.3-12.3-9.6-12.3-18.5c0-7.2-0.1-14.5,0-21.7
	c0.2-10.6,7.6-18,18.2-18.1c5.1,0,10.2,0,15.3,0c1.3,0,2.5,0.2,2.5-1.8c-0.1-11.1,0-22.1,0-33.1c-1.5-0.4-2.4,0.4-3.4,0.8
	c-9.6,4.1-19.1,8.3-28.8,12.3c-11.2,4.6-16.6,12.9-16.6,25c0,16.1-0.1,32.2,0.1,48.2c0,3.4-0.8,6.1-3.9,7.8
	C78.1,383.7,76.8,383.7,75.6,383.7z M192.4,234.6c16.3-0.4,31-6.4,42.8-18.9c10.7-11.2,16-24.7,16.7-40.1c0.2-5.5,1.9-7,7.4-7.1
	c2,0,4,0,6,0c6.3-0.2,10.5-3.7,10.6-9.1c0.2-5.2-4.2-9.3-10.3-9.6c-3.1-0.2-6.2,0-9.3-0.2c-7.6-0.5-14.1-5.8-15.7-13.2
	c-0.6-2.5-0.4-5.2-0.5-7.8c-0.3-9.7-5.9-17.4-14.6-19.9c-2.3-0.7-4.6-1.2-7.2,0.1c-23,11.2-47.1,18.7-72.4,22.1
	c-1.8,0.2-2.5,1-2.7,2.8c-1.4,10.2-7.9,15.9-18.1,16.1c-3.1,0.1-6.3-0.1-9.3,0.2c-4.9,0.5-8.2,4.4-8.3,9c-0.1,4.5,3.4,8.6,8.2,9.2
	c2.6,0.4,5.2,0.3,7.8,0.3c6.3,0.1,7.7,1.3,8,7.6C132.9,209.3,159.1,234.7,192.4,234.6z M216,241.6c-16.4,5.6-32.5,5.6-48.8,0
	c0,5.9,0.1,11.3,0,16.8c-0.3,10.2-5.2,17.4-14.4,21.7c-1.5,0.7-3,1.4-4.8,2.2c13.2,8.8,25.9,17.2,38.6,25.8
	c3.6,2.5,6.7,2.3,10.2-0.1c11.9-8.1,24-16,36-24.1c0.7-0.5,1.8-0.7,2.1-1.9c-0.7-0.3-1.4-0.7-2.1-1c-11.6-4.5-17.2-12.9-16.8-25.4
	C216.1,251.1,216,246.5,216,241.6z M232.6,46.5c-0.5-18.8-22.7-36-44.2-34.5c-18.9,1.3-39.5,20-37.7,34.4
	C178,33.3,205.3,33.4,232.6,46.5z M233.2,360c-0.1,6.9,5.3,12.5,12.1,12.5c6.7,0.1,12.5-5.5,12.6-12.2c0.1-6.7-5.5-12.4-12.3-12.5
	C238.8,347.7,233.3,353.1,233.2,360z"/>
<path d="M0,286.5c3.3-8.6,10.3-12.5,18.7-14.7c5-1.3,9.9-3.3,14.9-4.8c1.9-0.6,2.4-1.5,2.4-3.4c0.3-7.6,0-14.1-7.1-19.9
	c-7.9-6.5-10.7-16.5-10.9-26.9c-0.1-8.1-0.1-16.2,0-24.3c0.1-12.9,9.2-23.1,22.1-23.7c12.9-0.6,25.9-0.6,38.9,0
	c13,0.6,22.1,10.6,22.1,23.6c0,10.5,1,21-0.7,31.3c-1.6,10.1-6.8,18.4-14.8,24.7c-1.8,1.5-2.9,2.9-2.5,5.3c0.1,0.9,0,1.7,0,2.6
	c0,3-0.8,6.3,0.3,8.9c1.2,2.7,5.1,2.3,7.8,3.5c3.2,1.4,4.7,4.3,3.7,7.2c-0.9,2.9-4.2,4.8-7.3,3.4c-4-1.9-6.7-0.6-9.6,2
	c-3.2,2.7-6.7,5.1-10.1,7.6c-6.1,4.5-10.5,4.5-16.6,0c-1.1-0.8-2.2-1.6-3.3-2.3c-0.1,0-0.2,0.1-0.7,0.2c0,5.9,0,12,0,18
	c0,1.6,0.7,1.7,2,1.8c14.1,1.2,16,3.2,16,17.4c0,2.2,0.1,4.5,0,6.7c-0.2,5.5-4.5,10.2-9.9,11c-3.4,0.5-6.2-1.1-7-4.1
	c-0.8-2.8,0.6-5.6,3.8-6.7c1.4-0.5,2-0.9,2-2.4c-0.1-2.9-0.1-5.7,0-8.6c0.1-1.7-0.7-2-2.2-2c-6.7,0.1-13.5,0.1-20.2,0
	c-2.1,0-2.5,0.8-2.4,2.6c0.1,2.1,0.1,4.2,0,6.4c-0.1,2.2,0.1,3.7,2.8,4.5c2.8,0.9,3.8,3.6,3,6.4c-0.8,2.8-3,4.2-6,4.1
	c-5.6-0.2-10.6-5.1-10.9-10.9c-0.2-4.5-0.2-9,0-13.5c0.3-6.3,5.3-10.7,12-10.9c5.9-0.1,5.9-0.1,5.9-6.1c0-7.1,0-14.2,0-21.3
	c0-0.2-0.1-0.5-0.2-1.1c-7,2.3-13.9,4.5-20.8,7c-3,1.1-3.8,4-3.7,7.1c0.1,14,0,27.9,0.1,41.9c0,3.2-0.4,6-3.8,7.3
	c-3.5,1.3-5.6-0.8-7.4-3.3C0,320.9,0,303.7,0,286.5z M29.2,216.2c0.1,4.2,0.9,7.9,2.3,11.4c5.3,13.2,19,20.8,33.6,18.5
	c13-2.1,24.1-14.2,24.8-27.2c0.1-2.4-0.3-3.3-3-3.6c-13.6-1.4-26.1-6.2-37.2-14.2c-1.7-1.2-2.7-1.4-4.4,0c-4.3,3.4-8.7,6.7-13.2,9.8
	C29.9,212.3,28.5,213.9,29.2,216.2z M29.2,198.9c3.5-2.6,6.4-4.7,9.3-6.9c6.9-5.1,10.6-5.2,17.5-0.3c9.2,6.5,19.4,10.5,30.5,12.2
	c2.3,0.4,3.8,0.3,3.5-2.8c-0.3-3.1,0-6.2-0.1-9.3c-0.2-6.5-4.6-11.7-11.1-11.9c-12.8-0.4-25.7-0.4-38.5,0
	c-6.4,0.2-10.9,5.5-11.1,11.9C29.1,194,29.2,196.1,29.2,198.9z M47.4,256c-0.7,4.9-1.2,10-0.5,14.3c0.6,4.4,6.9,6,10.5,9.2
	c0.1,0.1,0.2,0.1,0.3,0.2c1.2,1.2,2.3,1.3,3.8,0.1c3.2-2.6,6.5-5,9.8-7.4c0.7-0.5,1.8-0.9,1.5-1.9c-1.5-4.6-0.3-9.5-1.1-14.4
	C63.4,258.3,55.4,258.3,47.4,256z"/>
<path d="M341.9,281.4c-3.7,2.8-6.8,5-9.9,7.3c-6.4,4.7-10.8,4.7-17.2-0.1c-3.8-2.8-7.7-5.5-11.3-8.6c-2.2-1.8-4.2-2.5-6.7-1.1
	c-0.5,0.3-1.2,0.5-1.8,0.6c-3.1,0.6-5.4-0.5-6.7-3.4c-1.2-2.8,0.1-5.8,3.1-7.1c2-0.9,4.2-1.5,6.3-2.2c1.7-0.5,2.6-1.3,2.2-3.2
	c-0.1-0.4,0-0.7,0-1.1c0.7-7.3-0.5-13.1-6.8-18.5c-7.9-6.8-11.1-16.6-11.2-27.2c-0.1-6.2-0.1-12.5,0-18.7
	c0.2-16.1,11.7-28.5,27.8-29.4c9.1-0.5,18.2-0.5,27.3,0c14.8,0.8,26.2,11.3,27.7,26c1,9.8,1.2,19.7-0.5,29.5
	c-1.8,9.9-6.9,18.1-14.8,24.3c-1.8,1.4-2.5,2.8-2.3,5c0.4,4.2-1.7,9.4,0.8,12.3c2.3,2.7,7.4,2.9,11.3,4.2c3.9,1.3,7.8,2.5,11.7,3.9
	c7.8,2.9,12.2,9,12.2,17.4c0.1,14.5,0,28.9,0,43.4c0,4.3-2.1,7-5.6,7c-3.4,0-5.6-2.6-5.7-6.9c0-14.1,0-28.2,0-42.3
	c0-5.2-1.1-6.7-6.1-8.4c-4.1-1.4-8.2-2.7-12.6-4.2c0,8.8,0.1,17.2-0.1,25.5c0,2.1,1.3,2.4,2.6,3.1c6.6,3.6,10.3,10.7,9.4,17.7
	c-1,7.3-6.2,13.2-13.4,14.9c-8.5,2.1-17.1-2.3-20.4-10.4c-3.4-8.2-0.2-17.7,7.7-21.8c2.6-1.4,3.1-2.9,3-5.5
	C341.8,296.4,341.9,289.3,341.9,281.4z M293.2,207.7C293.2,207.7,293.2,207.7,293.2,207.7c0,3.2-0.1,6.5,0,9.7
	c0.5,15.5,12.5,27.8,28.6,29.1c14.7,1.2,28.8-9.8,31.3-24.8c1.4-8.5,1-17.2,0.4-25.7c-0.6-8.6-7.6-15.3-16.2-15.9
	c-9.3-0.6-18.7-0.7-28,0c-9.2,0.7-15.9,8.3-16.2,17.5C293.1,201,293.2,204.3,293.2,207.7z M311.3,256.1c-0.4,5-1.4,10.3-0.5,14.5
	c0.9,4.1,7.1,6,10.7,9.1c1.3,1.1,2.3,1.3,3.8,0.1c3.2-2.6,6.5-5,9.8-7.4c0.7-0.5,1.9-0.9,1.5-1.9c-1.5-4.7-0.2-9.5-1.1-14.5
	c-4.1,1.1-8,1.7-12,1.8C319.5,257.9,315.5,257,311.3,256.1z M353.9,324.2c0-3.5-2.9-6.4-6.4-6.4c-3.5,0-6.2,2.6-6.3,6.1
	c-0.1,3.5,2.7,6.5,6.2,6.6C350.8,330.6,353.8,327.7,353.9,324.2z"/>
<path d="M193.3,203.8c-9.8-0.2-16.4-2.2-22.2-6.5c-3.2-2.4-4-5.6-2.1-8.4c1.9-2.7,5.2-3.1,8.6-0.8c8.8,5.9,19.2,5.9,28,0
	c3.4-2.2,6.6-1.9,8.6,0.8c1.9,2.7,1.2,6-2.1,8.4C205.7,202.1,198.4,203.9,193.3,203.8z"/>
<path d="M167.2,159.5c-0.1,1.2,0,2.5-0.2,3.7c-0.5,2.8-2.3,4.4-5.1,4.5c-2.8,0.1-4.9-1.2-5.6-4c-0.7-2.9-0.7-6,0-8.9
	c0.6-2.8,2.7-4.2,5.4-4.2c2.9,0.1,4.9,1.7,5.3,4.7c0.2,1.3,0,2.7,0,4.1C167.1,159.5,167.1,159.5,167.2,159.5z"/>
<path d="M216,158.9c0-1.1-0.1-2.3,0-3.4c0.4-3.1,2.3-4.7,5.3-4.8c2.9-0.1,5.1,1.4,5.6,4.4c0.4,2.4,0.4,5,0.2,7.4
	c-0.3,3.4-2.6,5.3-5.7,5.2c-3.1-0.1-5.1-2.1-5.4-5.5C215.9,161.1,216,160,216,158.9C216,158.9,216,158.9,216,158.9z"/>
</svg>
