<?xml version="1.0" encoding="utf-8"?>
<!-- Generator: Adobe Illustrator 24.0.2, SVG Export Plug-In . SVG Version: 6.00 Build 0)  -->
<svg version="1.1" id="Layer_1" xmlns="http://www.w3.org/2000/svg" xmlns:xlink="http://www.w3.org/1999/xlink" x="0px" y="0px"
	 viewBox="0 0 343.6 370.7" style="enable-background:new 0 0 343.6 370.7;" xml:space="preserve">
<g>
	<path d="M-0.1,189c0-51.6,0-103.2,0-154.8c0-15,7.7-22.7,22.8-22.7c66.6,0,133.2,0,199.7,0c4.3,0,8.2-0.7,12.3-2.3
		c43.5-17.5,92.9,7,106.2,52.4c14.3,49-20.7,98.6-71.7,101.8c-6.8,0.4-6.8,0.4-6.8,7.4c0,58.1,0,116.2,0,174.3
		c0,14.6-7.7,22.4-22.3,22.4c-72.7,0-145.4,0-218.1,0c-10.7,0-18.3-5-21.1-13.9c-0.9-2.8-1-5.6-1-8.5C-0.1,293-0.1,241-0.1,189z
		 M210.3,23.6c-0.6-0.7-1.4-0.3-2.1-0.3c-62.5,0-124.9,0-187.4,0c-6.7,0-9.9,3.5-9.9,10.7c0,103.7,0,207.5,0,311.2
		c0,7.3,3.2,10.5,10.4,10.5c72.9,0,145.9,0,218.8,0c7,0,10-3,10-10c0-60,0-119.9,0.1-179.9c0-2.4-0.6-3.4-3.1-3.9
		c-11.8-2.2-22.5-7.1-32-14.5c-1.7-1.3-3.4-1.7-5.5-1.7c-19.7,0-39.4,0-59.1,0c-6.5,0-13,0-19.5,0c-3.3,0-5.6-1.3-6.3-4.6
		c-0.9-4.1,1.9-7,6.9-7c21.8,0,43.6,0,65.5,0c1.2,0,2.3,0,3.8,0C174.1,99,178.9,52.2,210.3,23.6z M332,83.4
		c0-37.7-30.8-68.4-68.6-68.3c-37.7,0-68.4,30.8-68.4,68.6c0,37.7,30.9,68.4,68.6,68.4C301.4,152,332,121.2,332,83.4z"/>
	<path d="M42.5,72.4c-10.9-13.2-11-26.2-0.3-36c10.3-9.4,27-9.1,37,0.7c10,9.8,9.6,22.9-1.2,35.4c8,4.6,13.6,11.1,16.3,20
		c2,6.6,1.4,13.3,1.3,20c-0.1,2.9-2.2,4.3-4.8,4.9c-1.2,0.3-2.5,0.2-3.7,0.2c-18.2,0-36.4,0-54.6,0c-5.9,0-7.5-1.6-7.5-7.5
		c0-5.6-0.4-11.2,1.2-16.7C28.7,85.4,32.1,80.9,42.5,72.4z M37.8,102.5c0.7,1-1.6,3.8,2.3,3.8c13.9-0.1,27.9-0.1,41.9,0
		c1.8,0,2.2-0.6,2.3-2.4C84.8,91.2,74.7,80,62,79.5C49,79,38.2,89.1,37.8,102.5z M60.7,66.1c8.2,0.1,14.7-5.4,14.7-12.6
		c0-7.1-6.2-12.8-14.1-12.9c-8-0.1-14.7,5.6-14.8,12.7C46.4,60.2,52.7,66,60.7,66.1z"/>
	<path d="M109.1,153.7c0,5.9,0,11.7,0,17.6c0,5-1.9,6.9-6.7,6.9c-10.5,0.1-20.9,0.1-31.4,0c-4.4,0-6.5-1.9-6.5-6.4
		c-0.1-12-0.1-23.9,0-35.9c0-4.6,1.9-6.4,6.4-6.4c10.6-0.1,21.2-0.1,31.8,0c4.7,0,6.4,1.9,6.5,6.7
		C109.1,142,109.1,147.8,109.1,153.7z M76,153.4c0,3.6,0.1,7.2,0,10.8c-0.1,1.8,0.5,2.3,2.3,2.3c5.6-0.1,11.2-0.1,16.8,0
		c2,0,2.5-0.7,2.5-2.6c-0.1-6.8-0.1-13.7,0-20.5c0-2-0.7-2.5-2.6-2.5c-5.4,0.1-10.7,0.2-16.1,0c-2.7-0.1-3.1,0.9-3,3.2
		C76.2,147.2,76,150.3,76,153.4z"/>
	<path d="M109.1,230.6c0,5.9,0,11.7,0,17.6c0,4.7-1.8,6.5-6.6,6.5c-10.5,0.1-20.9,0.1-31.4,0c-4.8,0-6.6-1.8-6.6-6.6
		c-0.1-11.8-0.1-23.7,0-35.5c0-4.7,2-6.6,6.6-6.6c10.5-0.1,20.9-0.1,31.4,0c4.6,0,6.5,2,6.6,6.7
		C109.1,218.6,109.1,224.6,109.1,230.6z M76,228.7c0,4.4,0.1,8,0,11.6c-0.1,1.8,0.5,2.3,2.3,2.3c5.6-0.1,11.2-0.1,16.8,0
		c2,0,2.5-0.6,2.5-2.5c-0.1-4.6,0-9.2-0.1-13.8c-0.1-3,1.3-6.8-0.6-8.6c-1.9-1.8-5.7-0.5-8.7-0.5c-4,0-9.3-1.4-11.5,0.6
		C74.3,220,76.4,225.4,76,228.7z"/>
	<path d="M109.1,306.4c0,5.9,0,11.7,0,17.6c0,4.9-1.9,6.8-6.7,6.9c-10.5,0-20.9,0.1-31.4,0c-4.4,0-6.5-1.9-6.5-6.3
		c-0.1-12.1-0.1-24.2,0-36.2c0-4.3,2-6.1,6.3-6.1c10.6,0,21.2,0,31.8,0c4.5,0,6.5,2.1,6.5,6.7C109.1,294.7,109.1,300.5,109.1,306.4z
		 M76,306.2c0,3.6,0.1,7.2,0,10.8c0,1.6,0.5,2.1,2.1,2.1c5.7-0.1,11.5-0.1,17.2,0c1.8,0,2.3-0.6,2.3-2.4c-0.1-7-0.1-13.9,0-20.9
		c0-1.8-0.7-2.3-2.4-2.3c-5.6,0.1-11.2,0.1-16.8,0c-2.1-0.1-2.5,0.8-2.4,2.6C76.1,299.5,76,302.9,76,306.2z"/>
	<path d="M176,222.3c-14.7,0-29.4,0-44.1,0c-3.5,0-6.2-1-7-4.7c-0.7-3.1,1.2-6,4.3-6.7c1-0.2,2-0.3,3-0.3c29.3,0,58.6,0,87.9,0
		c4.8,0,7,1.6,7.4,5.1c0.5,4.2-2,6.6-6.9,6.6c-14,0-27.9,0-41.9,0C177.7,222.3,176.9,222.3,176,222.3z"/>
	<path d="M176.3,314.5c14.3,0,28.7,0,43,0c1.4,0,2.8,0,4.1,0.3c2.8,0.7,4.1,2.7,4.1,5.5c0,2.8-1.2,4.9-4,5.5c-1.4,0.3-3,0.4-4.4,0.4
		c-28.5,0-57.1,0-85.6,0c-0.9,0-1.7,0-2.6,0c-3.8-0.3-6-2.4-6-5.8c0-3.4,2.2-5.7,5.9-5.9c3-0.2,6,0,9,0
		C151.9,314.5,164.1,314.5,176.3,314.5z"/>
	<path d="M176.3,161.8c14.7,0,29.4,0,44.1,0c4.6,0,6.9,1.8,7,5.5c0.2,3.3-1.4,5.5-4.7,6.1c-1.2,0.2-2.5,0.2-3.7,0.2
		c-28.5,0-57.1,0-85.6,0c-1,0-2,0-3-0.1c-3.5-0.4-5.6-2.6-5.6-5.8c0-3.4,2.2-5.7,5.9-5.8c5.1-0.1,10.2,0,15.3,0
		C156.1,161.8,166.2,161.8,176.3,161.8z"/>
	<path d="M175.9,298.2c-14.7,0-29.4,0-44.1,0c-2.9,0-5.5-0.4-6.6-3.6c-1.4-3.8,0.8-7.5,4.8-7.9c0.7-0.1,1.5,0,2.2,0
		c29.3,0,58.5,0,87.8,0c0.5,0,1,0,1.5,0c3.6,0.2,5.9,2.5,5.9,5.8c0,3.5-2,5.6-6,5.7c-9.7,0.1-19.4,0-29.1,0
		C186.9,298.3,181.4,298.2,175.9,298.2z"/>
	<path d="M175.9,249.5c-14.8,0-29.6,0-44.4,0c-4.1,0-6.2-1.7-6.7-5c-0.4-3.4,1.7-6.1,5.2-6.4c0.7-0.1,1.5-0.1,2.2-0.1
		c29.3,0,58.5,0,87.8,0c4.7,0,7,1.6,7.4,5.1c0.5,4-1.9,6.4-6.7,6.4C205.8,249.5,190.8,249.5,175.9,249.5z"/>
	<path d="M229.3,83.2c0-11.7,0-23.4,0-35.1c0-5,1.8-6.8,6.7-6.8c18.6,0,37.1,0,55.7,0c4.4,0,6.6,2,6.5,5.9c-0.1,3.6-2.2,5.6-6.4,5.6
		c-15.7,0-31.4,0.1-47.1,0c-2.9,0-4,0.5-4,3.8c0.2,18.1,0.2,36.1,0,54.2c0,3.3,1,3.8,4,3.8c15.6-0.1,31.2-0.1,46.7-0.1
		c4.4,0,6.5,1.6,6.8,4.8c0.3,3.7-2,6.1-6.3,6.1c-8.8,0.1-17.7,0-26.5,0c-9.7,0-19.4,0-29.2,0c-5.2,0-6.9-1.7-6.9-6.9
		C229.3,106.6,229.3,94.9,229.3,83.2z"/>
	<path d="M268.2,101.4c-1.7,0-3.1-0.7-4.3-1.9c-3.9-3.9-7.8-7.7-11.6-11.7c-2.6-2.7-2.7-5.9-0.4-8.3c2.4-2.5,5.6-2.4,8.6,0.3
		c0.7,0.7,1.4,1.4,2.1,2.1c5.6,5.6,5.6,5.6,11.4-0.2c5-5,10-10.1,15.1-15.1c0.6-0.6,1.2-1.3,1.9-1.8c2.5-1.8,6.3-1.6,8.3,0.3
		c2.1,2.1,2,5.5-0.5,8c-2.7,2.9-5.6,5.7-8.5,8.5c-5.6,5.6-11.3,11.3-16.9,16.9C271.9,100.2,270.4,101.5,268.2,101.4z"/>
</g>
</svg>
