<?xml version="1.0" encoding="utf-8"?>
<!-- Generator: Adobe Illustrator 24.0.2, SVG Export Plug-In . SVG Version: 6.00 Build 0)  -->
<svg version="1.1" id="Layer_1" xmlns="http://www.w3.org/2000/svg" xmlns:xlink="http://www.w3.org/1999/xlink" x="0px" y="0px"
	 viewBox="0 0 336.2 408.9" style="enable-background:new 0 0 336.2 408.9;" xml:space="preserve">
<style type="text/css">
	.st0{fill:#FFFFFF;}
</style>
<g>
	<path class="st0" d="M23.4,408.9c-0.4-1.1-1.5-1-2.3-1.3c-13.9-4.7-21.4-14.9-21.6-29.5c0-0.1,0-0.3,0-0.4c0-101.5,0-202.9,0-304.4
		C-0.5,58.1,7.7,47,21.7,43c3.3-0.9,6.8-1.2,10.3-1.1c20.6,0,41.2,0,61.8,0.1c2.6,0,4-0.7,5.4-2.9c3.2-5.2,8.3-7.7,14.2-8.3
		c0.8-0.1,1.6-0.1,2.4-0.1c3.9,0,8,0.9,11.5-0.3c3.8-1.3,3.2-6.4,5-9.6c8.2-15.1,27.3-23.7,44.6-19.4c14.6,3.6,24.8,12.1,29.3,26.8
		c0.6,2,1.6,2.7,3.6,2.6c3.6-0.2,7.2-0.1,10.8,0c7,0.1,12.6,2.9,16.3,9c1.2,2,2.6,2.3,4.5,2.2c21,0,42,0,63,0
		c10.3,0,19,3.4,25.5,11.7c4.8,6,6.2,13,6.2,20.5c0,67.3,0,134.6,0,201.9c0,33.8,0,67.6,0,101.3c0,12.9-5.2,22.9-17.1,28.7
		c-2.6,1.3-5.6,2-8.4,3C215,408.9,119.2,408.9,23.4,408.9z M47.6,223.2c0,43,0.1,85.9-0.1,128.9c0,3.6,1,4.3,4.4,4.3
		c77.4-0.1,154.8-0.1,232.2,0c3.4,0,4.1-0.9,4.1-4.2c-0.1-86-0.1-172.1,0-258.1c0-3.3-0.8-4.2-4.2-4.2c-77.4,0.1-154.8,0.1-232.2,0
		c-3.7,0-4.3,1.1-4.3,4.5C47.7,137.3,47.6,180.3,47.6,223.2z M15.5,225.3c0,50.7,0,101.4,0,152c0,10,5.3,15.6,15,15.6
		c91.5,0,183,0,274.5,0c9.4,0,15-5.5,15-14.8c0-101.8,0-203.5,0-305.3c0-9.3-5.5-14.8-14.9-14.9c-5.2-0.1-10.4,0-15.6,0
		c-15.4,0-30.9,0.1-46.3-0.1c-2.8,0-3.7,0.8-3.5,3.6c0.2,2.8,0.3,5.6,0,8.4c-0.3,3.3,0.7,4.3,4.1,4.2c16.5-0.2,33-0.1,49.5-0.1
		c7.8,0,10.7,2.9,10.7,10.9c0,92.3,0,184.6,0,276.9c0,7.7-2.9,10.6-10.6,10.6c-83.8,0-167.6,0-251.4,0c-7.7,0-10.6-2.9-10.6-10.6
		c0-92.3,0-184.6,0-276.9c0-7.9,2.9-10.8,10.8-10.8c13.8,0,27.7,0,41.5,0c3.8,0,9,1.3,11.2-0.7c2.5-2.3,0.4-7.5,0.8-11.5
		c0.3-3.1-0.7-4-3.9-4C72,58,52.2,57.9,32.3,57.9c-12,0-16.9,5-16.9,16.9C15.5,125,15.5,175.2,15.5,225.3z M167.9,74
		c17.5,0,35.1-0.1,52.6,0.1c2.9,0,3.5-0.8,3.4-3.5c-0.2-6.4-0.2-12.8,0-19.1c0.1-3.5-1.2-4.8-4.7-4.7c-7,0.1-14.1,0-21.1,0
		c-6.3,0-6.3,0-6.3-6.1c0.1-9.6-3.5-17.1-12.4-21.4c-9.2-4.5-18.3-3.9-26.7,2.1c-7.4,5.2-9.5,12.8-8.9,21.4c0.2,3.2-0.5,4.3-4,4.2
		c-7.7-0.3-15.4,0-23.1-0.2c-3.9-0.1-5.2,1.4-5,5.2c0.2,6.2,0.2,12.5,0,18.7c-0.1,2.8,0.7,3.5,3.5,3.5C132.8,73.9,150.3,74,167.9,74
		z"/>
	<path class="st0" d="M167.7,250.3c-37.3-0.2-67.4-30.5-67.1-67.6c0.3-37.2,30.3-67,67.4-66.9c37.2,0.1,67.4,30.5,67.1,67.6
		C234.7,220.7,204.7,250.5,167.7,250.3z M168,234.3c28.3-0.1,51.1-22.9,51-51.2c0-28.4-23.1-51.3-51.6-51.1
		c-28.3,0.2-51,23.2-50.8,51.5C116.8,211.7,139.7,234.4,168,234.3z"/>
	<path class="st0" d="M189.4,295.1c-16.5,0-33,0-49.5,0c-1.7,0-3.5,0-5.2-0.4c-3.5-0.7-6-3.8-6.1-7.4s2.2-6.8,5.7-7.7
		c1.5-0.4,3.1-0.5,4.7-0.5c33.6,0,67.3,0,100.9,0c6.5,0,10.2,3,10.2,8c0,4-2.6,7.2-6.6,7.7c-2.4,0.3-4.8,0.3-7.2,0.3
		C220.8,295.1,205.1,295.1,189.4,295.1z"/>
	<path class="st0" d="M189.7,317.6c16.9,0,33.8,0,50.7,0c6.2,0,9.6,2.7,9.8,7.5c0.2,4-2.1,7.2-6.2,8c-1.5,0.3-3.2,0.5-4.7,0.5
		c-33.2,0-66.5,0-99.7,0c-1.7,0-3.5-0.1-5.1-0.5c-3.5-0.8-5.8-4.1-5.8-7.6c0.1-3.7,2.7-6.9,6.4-7.5c1.6-0.3,3.2-0.3,4.8-0.3
		C156.5,317.6,173.1,317.6,189.7,317.6z"/>
	<path class="st0" d="M102.4,294.9c-3.3,0-6.6,0.2-9.9-0.1c-4.1-0.4-6.8-3.4-7-7.3c-0.2-4.2,2.2-7.5,6.5-8.1
		c6.7-0.9,13.5-0.9,20.2,0c4.2,0.5,6.9,4.1,6.7,8c-0.2,4-3.1,7.1-7.4,7.4C108.5,295.2,105.5,295,102.4,294.9
		C102.4,295,102.4,294.9,102.4,294.9z"/>
	<path class="st0" d="M102.3,333.7c-3.6-0.3-7.2,0.4-10.7-0.5c-4-1-6.3-4-6.1-8.1c0.2-3.8,2.8-6.9,6.6-7.2c6.7-0.6,13.5-0.6,20.2,0
		c3.7,0.4,6.4,3.7,6.6,7.3c0.2,3.6-2.4,6.9-6,7.9C109.4,334.1,105.8,333.5,102.3,333.7z"/>
	<path class="st0" d="M180.6,40.3c0,7-5.6,12.7-12.5,12.8c-7.2,0.1-13-5.5-13-12.7c0-7.1,5.9-13,12.9-12.9
		C174.9,27.6,180.6,33.4,180.6,40.3z M167.7,37.1c-2,0.4-3.2,1.5-3,3.6c0.2,1.8,1.4,2.9,3.3,2.7c1.9-0.1,2.9-1.3,3-3.1
		C171,38.3,169.6,37.4,167.7,37.1z"/>
	<path class="st0" d="M146,182.9c3.5-0.1,5.6,2.3,7.9,4.6c5.6,5.6,5.6,5.6,11.3,0c8.6-8.6,17.1-17.1,25.7-25.7c2.8-2.8,6-4.5,10-2.8
		c4.4,1.9,6.1,7.2,3.5,11.3c-0.8,1.2-1.8,2.3-2.8,3.3c-11.6,11.6-23.1,23.2-34.7,34.7c-5.4,5.4-9.2,5.4-14.6,0.1
		c-4-3.9-8-7.8-11.8-11.9c-2.5-2.6-3.4-5.8-1.8-9.2C139.9,184.5,142.4,182.8,146,182.9z"/>
</g>
</svg>
