<?xml version="1.0" encoding="utf-8"?>
<!-- Generator: Adobe Illustrator 24.0.2, SVG Export Plug-In . SVG Version: 6.00 Build 0)  -->
<svg version="1.1" id="Layer_1" xmlns="http://www.w3.org/2000/svg" xmlns:xlink="http://www.w3.org/1999/xlink" x="0px" y="0px"
	 viewBox="0 0 336.2 323.5" style="enable-background:new 0 0 336.2 323.5;" xml:space="preserve">
<path d="M168.1,0c-42.8,0-77.5,37.4-77.5,83.6s34.7,83.6,77.5,83.6s77.5-37.4,77.5-83.6S210.9,0,168.1,0z M168.1,160.8
	c-39.5,0-71.6-34.6-71.6-77.2s32-77.2,71.6-77.2s71.6,34.6,71.6,77.2S207.6,160.8,168.1,160.8z M336,319.6
	c-0.2-1.8-3.9-43.7-12.7-69.7c-2.6-7.8-8.3-14.3-15.7-17.9c-14.2-6.9-39.6-17.5-58.5-25.1c-14-5.7-25.9-10.4-31.3-12.5l-7.5-20
	h-84.4l-7.5,20c-4.2,1.6-16.7,6.6-31.3,12.5c-18.9,7.7-44.3,18.2-58.5,25.1c-7.4,3.6-13.1,10.1-15.7,17.9
	c-8.8,26-12.5,67.9-12.7,69.7c-0.2,2,1.3,3.7,3.3,3.9c0.1,0,0.2,0,0.3,0c1.8,0,3.4-1.4,3.6-3.3c0-0.4,3.9-42.8,12.4-68
	c2-6,6.4-11,12-13.7c10.2-4.9,28-12.6,51.8-22.4l7.9-3.2c13.2-5.3,24.3-9.7,28.9-11.5l5-5.1l6.4-17h72.7l6.4,17.1l5.1,5.1
	c5.5,2.2,16.2,6.4,28.8,11.5l7.8,3.2c17.8,7.3,39.4,16.3,51.9,22.4c5.6,2.7,10,7.7,12,13.7c8.5,25.2,12.3,67.6,12.4,68
	c0.2,1.9,1.7,3.3,3.6,3.3c0.1,0,0.2,0,0.3,0C334.8,323.3,336.2,321.6,336,319.6"/>
</svg>
