<?xml version="1.0" encoding="utf-8"?>
<!-- Generator: Adobe Illustrator 24.0.2, SVG Export Plug-In . SVG Version: 6.00 Build 0)  -->
<svg version="1.1" id="Layer_1" xmlns="http://www.w3.org/2000/svg" xmlns:xlink="http://www.w3.org/1999/xlink" x="0px" y="0px"
	 viewBox="0 0 336.2 323.5" style="enable-background:new 0 0 336.2 323.5;" xml:space="preserve">
<style type="text/css">
	.st0{fill:#FFFFFF;}
</style>
<g>
	<g>
		<path class="st0" d="M332.1,323.5H4.1l-1-6.9c-0.3-2-7.2-50.3,24.3-72.7c9.6-6.8,20.2-10.1,29.3-12.5c4.2-1.1,8.4-2,12.7-3
			c20.2-4.5,39.3-8.7,53.4-27.3l0.1-0.1c1.3-2.3,1.4-11.6-12.2-28.3c-30-36.4-23.2-93.6-20.4-110.3C96.2,26.8,129.6,0,168.1,0
			s71.9,26.8,77.8,62.4c2.8,16.7,9.5,73.9-20.3,110.3c-13.2,16.1-13.5,25.4-12.3,28l0.6,0.4l-0.4-0.1c14,18.6,33.1,22.8,53.3,27.3
			c4.5,1,8.9,2,13.2,3.1c8.4,2.2,19.2,5.6,28.8,12.3l0,0c31.5,22.4,24.6,70.7,24.3,72.7L332.1,323.5z M18.5,307.3h299.2
			c0.5-12.3-0.8-37.8-18.3-50.3c-5.9-4.2-12.9-7.1-23.5-9.9c-4.1-1.1-8.4-2-12.6-3c-21.1-4.7-45.1-10-62.7-33.3
			c-2.4-3.1-11.8-18.6,12.5-48.4c25.5-31.2,19.3-82.5,16.8-97.4c-4.6-27.9-31.3-48.9-61.9-48.9s-57.3,21-61.9,48.9
			c-2.5,15-8.7,66.3,16.8,97.4c24.3,29.8,14.9,45.3,12.5,48.4c-17.6,23.3-41.6,28.6-62.7,33.3c-4.1,0.9-8.2,1.8-12.1,2.8
			c-7.7,2-16.5,4.7-24,10C19.3,269.5,18,295.1,18.5,307.3z"/>
	</g>
</g>
</svg>
