<?xml version="1.0" encoding="utf-8"?>
<!-- Generator: Adobe Illustrator 24.0.2, SVG Export Plug-In . SVG Version: 6.00 Build 0)  -->
<svg version="1.1" id="Layer_1" xmlns="http://www.w3.org/2000/svg" xmlns:xlink="http://www.w3.org/1999/xlink" x="0px" y="0px"
	 viewBox="0 0 336.2 372.5" style="enable-background:new 0 0 336.2 372.5;" xml:space="preserve">
<style type="text/css">
	.st0{display:none;}
	.st1{display:inline;}
	.st2{clip-path:url(#SVGID_2_);}
	.st3{fill:#FFFFFF;stroke:#FFFFFF;stroke-width:5;stroke-miterlimit:10;}
</style>
<g id="_x33_89_x2C__Avatar_x2C__User_x2C__Basic" class="st0">
	<g id="XMLID_4200_" class="st1">
		<g id="XMLID_4201_">
			<path d="M327.9,371.6H8.3c-4.6,0-8.6-3.9-8.6-8.5c0-37.1,11.2-71.7,33-99.7c21.1-27.4,50.8-47.6,85.7-58
				c7.9-2.6,13.2-9.8,13.2-17.6v-9.1c-17.8-9.1-31.6-25.4-40.2-45c-10.5-2.6-18.5-14.3-21.1-23.5c-4-12.4,2.6-24.8,13.8-30
				c2-22.2,10.5-41.7,25.7-56c15.8-15,36.9-23.5,60-23.5s44.2,8.5,60,23.5c15.2,14.3,23.7,34.5,25,56.7c9.9,5.9,15.2,17.6,11.9,29.3
				c-2.6,7.8-9.2,19.5-19.1,23.5c-7.9,19.5-22.4,35.8-40.2,45v9.1c0,7.8,5.3,15,13.2,17.6l0,0c71.2,22.2,116,82.1,116,157.7
				C336.5,367.7,332.5,371.6,327.9,371.6z M16.8,355.3h302.5c-3.3-63.9-42.8-114.7-104.8-133.6c-14.5-4.6-24.4-17.6-24.4-33.2v-14.3
				c0-3.3,2-5.9,4.6-7.2c17.1-7.8,31-23.5,38.2-42.4c1.3-3.3,4.6-5.9,7.9-5.2c2,0,7.3-5.9,9.2-12.4c1.3-4.6-1.3-9.8-5.9-11.1l0,0
				c-4-2-5.9-5.2-5.9-9.1c-0.7-40.4-29.7-69.7-69.2-69.7c-38.9,0-67.9,29.3-69.2,69.1c0,3.3-2.6,6.5-5.9,7.8l-2,0.7
				c-2.6,0.7-4,2-5.3,4.6c-1.3,2-1.3,4.6-0.7,6.5c2,7.2,7.9,13,9.9,12.4c4-0.7,7.9,2,9.2,5.2c7.3,19.5,21.1,35.2,38.2,43
				c2.6,1.3,4.6,3.9,4.6,7.2v14.3c0,15.6-9.9,28.7-24.4,33.2C60.3,240.7,20.1,291.5,16.8,355.3z"/>
		</g>
	</g>
</g>
<g>
	<g>
		<defs>
			<rect id="SVGID_1_" width="336.2" height="372.5"/>
		</defs>
		<clipPath id="SVGID_2_">
			<use xlink:href="#SVGID_1_"  style="overflow:visible;"/>
		</clipPath>
		<g class="st2">
			<path class="st3" d="M168.8,289.2l-43.5-43.9l6.4-17c4.6,3.4,8.2,5.2,9.6,5.9l0,0c8.5,4.1,17.4,6.2,26.4,6.2c0.1,0,0.2,0,0.4,0
				c9.1,0,18.1-2.1,26.7-6.2l0,0c1.4-0.6,5-2.4,9.6-5.9l6.4,17.1L168.8,289.2z M103.2,318.8c0,7.9-6.4,14.2-14.3,14.2
				s-14.3-6.4-14.3-14.2c0-7.6,6-13.8,13.5-14.2l0,0l0,0c0.2,0,0.5,0,0.7,0C96.8,304.6,103.2,311,103.2,318.8z M110.5,191.1
				c-9.2-18.5-11.7-27.4-13.3-32.7c-1.3-4.7-2.1-7.3-6.2-10c-4.6-2.9-7.1-7.5-7.1-13c0-7.8,6.4-11.1,6.6-11.3
				c0.1-0.1,0.3-0.2,0.4-0.2l0,0c0.1,0,0.2-0.1,0.3-0.2c13.1-7,15.6-16.5,15.4-23.2c-0.5-17.6,11.8-27,12.8-27.7
				c5.3-3.3,14.4-5.8,27.5,1.3c6.7,3.6,14.6,3.8,21.8,0.4c9.5-4.4,20.8-4.8,31.1-1c10.1,3.7,18.1,11.1,22.5,20.7
				c9.2,20,19.5,27.5,22.7,29.4c0.2,0.2,0.5,0.4,0.8,0.5s6.6,3.5,6.6,11.3c0,5.5-2.5,10.1-7.1,13c-4.2,2.6-4.9,5.3-6.2,10
				c-1.5,5.3-4,14.3-13.3,32.7c-13.2,26.5-31.8,35.6-33.9,36.6c0,0-0.1,0-0.1,0.1c-15.4,7.4-31.8,7.4-47.2,0c-0.1,0-0.1,0-0.1-0.1
				C142.3,226.7,123.7,217.6,110.5,191.1z M93.1,55.9c2.8-10.3,8.7-16.7,17.5-18.9c6.9-1.7,13.1-0.3,13.1-0.3
				c1.8,0.4,3.7-0.6,4.3-2.3c0-0.1,3.4-9.9,12.3-17.6c11.8-10.2,27.6-12.2,46.8-6c24.3,7.8,45.1,27,55.6,51.4
				c8,18.4,9,37.6,3.1,53.2c-3.9-3.2-10.8-10.4-17.1-24.3c-5.2-11.3-14.6-20-26.5-24.4c-5.5-2-11.3-3-17-3c-6.8,0-13.5,1.4-19.6,4.2
				c-5.1,2.4-10.7,2.3-15.4-0.2c-12.9-7-24.9-7.3-34.8-1l-0.1,0.1c-0.7,0.5-16.5,11.9-15.9,33.9c0.2,5.7-2.5,10.5-7.9,14.4
				C90.1,103.9,87.4,77.1,93.1,55.9z M336,368.6c-0.2-1.8-3.9-43.7-12.7-69.7c-2.6-7.8-8.3-14.3-15.7-17.9
				c-14.2-6.9-39.6-17.5-58.5-25.1c-14-5.7-25.9-10.4-31.3-12.5l-7.5-20c7-6.3,15-15.6,21.8-29.2c9.5-19.1,12.3-28.8,13.7-34
				c1.2-4.4,1.4-4.7,3.2-5.9c6.6-4.2,10.4-11.1,10.4-19c0-8.1-4.5-13.1-7.6-15.7c7.3-17.7,6.5-39.5-2.5-60.3
				c-11.4-26.3-33.8-47-60-55.4c-15.1-4.9-36.7-7.5-54,7.6c-7.3,6.3-11.3,13.7-13,17.6c-3-0.4-7.9-0.6-13.2,0.7
				c-8,1.9-18.6,7.7-23,24.1c-6.8,25.1-2.7,56.3-1.3,65.1c-3.1,2.3-8.3,7.4-8.3,16.2c0,7.9,3.8,14.8,10.4,19c1.8,1.2,2,1.5,3.2,5.9
				c1.5,5.2,4.2,14.9,13.7,34c6.8,13.6,14.9,23,21.8,29.2l-7.5,20c-4.2,1.6-16.7,6.6-31.3,12.5c-18.9,7.7-44.3,18.2-58.5,25.1
				c-7.4,3.6-13.1,10.1-15.7,17.9c-8.8,26-12.5,67.9-12.7,69.7c-0.2,2,1.3,3.7,3.3,3.9c0.1,0,0.2,0,0.3,0c1.8,0,3.4-1.4,3.6-3.3
				c0-0.4,3.9-42.8,12.4-68c2-6,6.4-11,12-13.7c10.2-4.9,28-12.6,51.8-22.4c-2,12.5-0.7,25.6,0.5,32.8c-9.4,2.2-16.4,10.7-16.4,20.8
				c0,11.8,9.6,21.4,21.4,21.4s21.4-9.6,21.4-21.4c0-11.1-8.4-20.2-19.2-21.3c-1.4-7.9-2.7-23.1,0.3-35.6
				c13.2-5.3,24.3-9.7,28.9-11.5l46,46.4c0.7,0.7,1.6,1.1,2.5,1.1l0,0c1,0,1.9-0.4,2.6-1.1l44.5-46.4c5.5,2.2,16.2,6.4,28.8,11.5
				c2.6,11.9,0.5,27.7-0.9,35.6c-2.5-0.1-5,0-7.5,0.5c-12.8,2.4-23.5,12.3-27.3,25.1c-3.8,13.2-6.3,29.7-6.5,31.2
				c-0.2,1.3,0.3,2.6,1.4,3.4c0.5,0.4,1.1,0.6,1.7,0.7l12.3,1.8c2,0.3,3.8-1.1,4.1-3l0.9-6.1c0.3-2-1.1-3.8-3-4.1
				c-2-0.3-3.8,1.1-4.1,3l-0.4,2.5l-5.3-0.8c0.9-5.7,3-17.3,5.7-26.8c3-10.2,11.5-18.1,21.7-20c2.9-0.5,5.7-0.6,8.4-0.1l0,0l0,0
				c2.4,0.4,4.7,1.2,7,2.4c9.2,4.7,15.2,14.7,15.1,25.4c-0.1,9.9-1.4,21.6-2.1,27.3l-5.3-0.8l0.4-2.5c0.3-2-1.1-3.8-3-4.1
				c-2-0.3-3.8,1.1-4.1,3l-0.9,6.1c-0.1,0.9,0.1,1.9,0.7,2.7c0.6,0.8,1.4,1.3,2.4,1.4l12.4,1.8c0.2,0,0.4,0,0.5,0
				c0.4,0,0.9-0.1,1.3-0.3c1.2-0.5,2.1-1.6,2.2-2.9c0.2-1.7,2.6-18.1,2.7-31.7c0.1-13.3-7.4-25.8-19-31.8c-1.8-0.9-3.6-1.6-5.5-2.2
				c1.4-8,3.2-21.6,1.6-33.6c17.8,7.3,39.4,16.3,51.9,22.4c5.6,2.7,10,7.7,12,13.7c8.5,25.2,12.3,67.6,12.4,68
				c0.2,1.9,1.7,3.3,3.6,3.3c0.1,0,0.2,0,0.3,0C334.8,372.3,336.2,370.6,336,368.6"/>
		</g>
	</g>
</g>
</svg>
