<svg xmlns="http://www.w3.org/2000/svg" xmlns:xlink="http://www.w3.org/1999/xlink" version="1.1" id="Layer_1" x="0px" y="0px" viewBox="0 0 393.3 396.3" style="enable-background:new 0 0 393.3 396.3;" xml:space="preserve">
<g>
	<path d="M169.5,397.1c-8.1-13.5-16.1-27-24.3-40.4c-1.7-2.7-0.8-3.1,1.7-3.9c15.2-4.8,30.7-8.9,45.6-14.6   c14.2-5.4,27.2-13,39.3-22.2c1.5-1.1,1.6-1.9,0.5-3.3c-4.6-5.9-8.9-12-12.7-18.5c-1.2-2-2.2-1.9-4-1c-21.7,9.8-44.4,14.1-68.2,13.2   c-30.3-1.3-57.9-10.7-82.6-28.3c-23.2-16.5-40.5-37.8-51.9-63.8C0.7,186.2-3,156.9,2.5,126.8c6.6-36.7,24.4-67.2,52.9-91.1   c22.5-18.8,48.4-30.2,77.5-34.2c32.7-4.5,63.6,1.3,92.5,16.7c28.3,15.1,49.9,37.3,64.5,66c10.8,21.3,16.3,43.9,16.7,67.8   c0,1.4,0,2.8-0.1,4.3c-0.5,4.7-0.9,9.3,4.5,11.8c0.8,0.4,1.3,1.5,1.9,2.4c10.3,16.5,20.6,33.1,31,49.5c1.1,1.8,1.3,3.5,0.8,5.5   c-7.1,31.8-20.1,60.9-40,86.7c-2.2,2.8-2,4,1,5.9c26,16.8,53.8,28.8,84.3,34.2c1,0.2,2,0.5,3.3,0.8c-6,10-12,19.8-17.7,29.7   c-2.8,4.7-6.2,9.2-8.2,14.3c-0.5,0-1,0-1.6,0c-2.7-1.6-5.7-2.2-8.6-3c-31.6-9-61.3-22-87-42.9c-2.1-1.7-3.1-0.5-4.5,0.6   c-21.7,17.1-45.8,29.5-72.1,37.7c-7.5,2.4-15.3,4.2-22.4,7.6C170.5,397.1,170,397.1,169.5,397.1z M46.4,62   C17.8,97.3,6.9,137.1,15.9,181.6c7,34.8,25,63.3,53.8,84.1c43.1,31,89.6,36.1,139,16.6c2.8-1.1,3-2.2,1.7-4.7   c-8-15.7-13.8-32.2-17.9-49.3c-1-4.2-0.9-7.5,1.7-11.1c2.9-3.9,2.7-4.1-1.7-6.5c-7-3.8-15-5.6-21.8-9.9c-1.9-1.2-3.3-1.1-5.2,0   c-8.8,5.1-20.1,4.3-27.6-1.9c-1.9-1.6-3.8-2.3-6.2-2.6c-11.4-1.3-20.7-10.8-21.8-22.2c-0.2-2-0.8-3.6-2.1-5.2   c-5.5-6.8-7.6-14.7-4.4-22.8c3-7.6,6.8-15,9.3-22.8c1.4-4.4,5.4-7.2,9.2-10.2C98.1,105.4,82,86.7,75.8,69.2   c-3.3-9.3-3.6-9.1,5.5-13.5c2.2-1.1,2.9-0.4,3.6,1.5c1,2.7,2.1,5.3,3.1,7.9c6.3,16.5,17.6,27.9,34.1,34.3c4.7,1.8,9.4,3.6,13.7,6.3   c1.7,1.1,3,1.1,4.8,0c9.2-5.4,20.3-4.4,28.5,2.3c1.5,1.2,3,1.8,4.9,2c12.1,1.2,21.4,10.6,22.5,22.8c0.2,1.8,0.8,3.1,1.9,4.5   c6.7,8.2,7.9,19.1,2.5,28.2c-2.5,4.1-4.3,8.1-5.3,12.9c-1.3,6.4-5.6,11.1-11.2,15c5.8,2.6,11.6,4.1,16.4,7.6   c2.4,1.7,3.2,0.9,4.5-1.2c5.3-8.7,11.1-17.1,16.1-26c3.8-6.7,9.5-10.8,16.1-13.9c10.3-4.9,21.3-6.7,32.7-6.5   c7.9,0.2,15.6,1.7,23.3,4.1c0.4-11.6-0.6-22.8-3.1-33.8c-6.7-29.9-21.3-55.2-44.3-75.4C215.6,21.5,179.8,10,139.6,13.6   c-31.6,2.8-59,15.7-82.4,37.3c-1.6,1.5-1.7,2.4-0.2,3.9c7.5,7.4,12.4,16.4,15.8,26.3c3.2,9.1,8.9,16.5,15.8,23   c2.2,2.1,6.4,3.2,6.3,6c-0.1,2.6-3.2,5.1-4.6,7.9c-1.2,2.2-2.2,2-4,0.7c-12.8-9.5-21.9-21.7-27-36.9C56.8,74.1,52.3,67.7,46.4,62z    M224.3,193.2c-6.7,10.7-12.7,20.4-18.8,30.1c-0.8,1.3-0.5,2.5-0.2,3.7c2.5,9.9,5.4,19.6,9.2,29.1c13.6,33.6,34.5,61.7,62.7,84.6   c24.3,19.7,52.1,32,81.8,40.6c1.9,0.6,2.5-0.2,3.3-1.5c2.7-4.7,5.5-9.3,8.3-13.9c2.4-4,2.4-3.9-2-5.1   c-29.6-8.4-56.9-21.2-81.3-40.1c-21.4-16.6-37.9-37.1-48.1-62.4C231,237.6,226.4,216.3,224.3,193.2z M169,183.8   c10,0.6,15.8-5.5,14.6-15.1c-0.3-2.2,0.2-3.4,2-4.8c8-6.3,7.9-15.1-0.2-21.4c-1.7-1.3-2.1-2.5-1.8-4.5c1.2-10.1-5.1-16.5-15.1-15.2   c-2.1,0.3-3.2-0.1-4.5-1.8c-6.1-7.9-15.4-7.8-21.6,0.1c-1.3,1.7-2.5,1.9-4.5,1.7c-9.8-1.3-16.2,5.1-15.1,14.9   c0.2,2.1-0.1,3.5-1.9,4.9c-8,6.2-8,15.2,0,21.4c1.7,1.3,2.1,2.5,1.9,4.5c-1.2,9.9,4.5,16.1,14.3,15.2c2.8-0.2,4.3,0.5,6.1,2.7   c5.4,6.6,14.7,6.6,20.1-0.1C165,184.1,166.6,182.7,169,183.8z M312.5,194.1c-1.1,1.5-1,2.7-1.1,3.8c-0.8,8.6-2.1,17.2-3.9,25.6   c-5.3,24.4-14,47.4-29.2,67.5c-1.4,1.8-1.3,2.9,0.4,4.5c3.8,3.3,7.4,6.8,11,10.4c1.7,1.7,2.6,1.5,4.1-0.4   c18-23.6,30.5-49.8,37.3-78.7c0.3-1.1,0.6-2.1-0.1-3.3C324.8,213.8,318.8,204.1,312.5,194.1z M257.9,340.7   c-0.4-0.4-1.1-0.9-1.6-1.4c-4-4-8.2-7.9-11.9-12.2c-2.1-2.4-3.5-2.3-5.9-0.4c-12.8,10-26.8,17.8-42,23.6c-10,3.8-20.3,6.9-30.5,9.9   c-2.4,0.7-3.3,1.2-1.6,3.7c3.3,5.1,6.4,10.3,9.4,15.6c1,1.7,1.9,2.4,3.9,1.5c3.5-1.4,7.1-2.3,10.7-3.4   c24.5-7.5,47.2-18.7,67.4-34.5C256.6,342.5,257.8,342.2,257.9,340.7z M236.6,185.2c0.1,1.5,0.2,3.1,0.3,4.6   c0.2,2.4-0.4,5.9,0.9,7.1c1.8,1.7,4.5-1,6.8-1.7c17.4-5.4,34.6-5.1,51.5,1.8c2.2,0.9,2.9,0.7,2.9-1.8c0.1-5.4,0.3-10.8,0.9-16.2   c0.3-3.1-1-4.7-3.5-6c-16.5-8.6-33.6-9.5-50.8-2.7C235.7,174.2,235.9,174.6,236.6,185.2z M251.2,253.4   c10.8-9.1,26.4-31.9,31.2-45.3c0.5-1.4,0.5-2.2-1.1-2.4c-13.9-2.4-27.5-1.6-40.3,5c-1.3,0.7-1.5,1.3-1.3,2.7   C242.2,227.1,245.8,240.5,251.2,253.4z M268.3,283.3c15.7-21.1,23.8-44.9,28.4-70.2c0.1-0.7,0.3-1.7-0.6-2   c-1.3-0.4-1.3,0.9-1.7,1.6c-2.4,5-4.7,10.1-7.3,14.9c-7.4,13.4-16.7,25.5-27.8,36.1c-0.9,0.8-2.7,1.4-1.6,3.4   C260.8,272.6,264,278.2,268.3,283.3z" fill="#E18E26"/>
	<path d="M145,280.8c-8.1-0.1-16.2-3.9-22.4-11.3c-1.2-1.4-2.3-2.1-4.2-1.8c-16.3,2.2-30.7-9.3-34.5-24c-3.6-14.2,3.9-29.9,18-36.5   c12.4-5.8,27.9-2.4,37,8.2c1.4,1.6,2.6,2.3,4.9,2.1c18.4-1.9,34,11.9,35,30.7C179.7,265.5,164.8,280.7,145,280.8z M165.9,248.5   c-0.4-12-11.1-20.7-22.7-18.2c-8.2,1.7-8.3,1.7-13-5.1c-5.3-7.7-15.6-10.3-24-6c-8.8,4.5-12.6,14.3-9.1,23.6   c3.3,9,12.5,14,21.6,11.9c7.8-1.8,8-1.8,12.6,5c4.8,7,13.3,9.9,21.4,7.3C160.8,264.4,166.1,256.9,165.9,248.5z" fill="#E18E26"/>
	<path d="M108.4,50.7c0-1.3,0.1-2.6,0-3.9c-0.1-1.6,0.5-2.3,2.1-2.5c5.9-1,9.4-4.6,10.5-10.4c0.4-1.8,1-2.3,2.8-2.2   c2.6,0.1,5.2,0.2,7.7,0c2.3-0.2,2.4,0.8,2.3,2.7c-0.5,11.3-11.7,22.3-23,22.8c-1.9,0.1-2.6-0.4-2.4-2.3   C108.5,53.6,108.4,52.1,108.4,50.7z" fill="#E18E26"/>
	<path d="M38.5,191.5c1,0,2.1,0.1,3.1,0c2.1-0.3,3.1,0.3,3.5,2.6c1.1,5.4,4.6,8.9,10.1,9.8c1.8,0.3,2.4,1,2.3,2.7   c-0.1,1.8,0,3.6,0,5.4c0,5.4,0,5.4-5.2,4.4c-10.1-1.9-18.8-11.1-20.1-20.9c-0.4-3,0.1-4.7,3.6-4C36.6,191.6,37.6,191.5,38.5,191.5z   " fill="#E18E26"/>
	<path d="M31.9,127.6c0-0.9,0.1-1.8,0-2.7c-0.3-2.5,0.3-3.7,3.2-4.3c5-1,8.2-4.7,9.2-9.8c0.4-2,1-2.5,2.9-2.4c2.3,0.1,4.6,0.2,6.9,0   c2.4-0.2,3.3,0.3,3,3.1c-1,11.3-11.5,21.6-23,22.4c-1.8,0.1-2.3-0.3-2.2-2C32,130.5,31.9,129,31.9,127.6z" fill="#E18E26"/>
	<path d="M198,88.9c0-1.2,0.1-2.3,0-3.5c-0.2-1.7,0.3-2.4,2.2-2.7c5.7-1.1,9.2-4.8,10.4-10.5c0.1-0.3,0-0.7,0.1-0.7   c3.5-2.5,7.5-0.9,11.3-1.1c2.7-0.1,1.2,2.4,1.1,3.6c-0.8,10.2-10.5,20-20.8,21.5c-3.2,0.5-5,0-4.2-3.8   C198.1,90.7,198,89.8,198,88.9z" fill="#E18E26"/>
	<path d="M255.2,134.1c-6.3,0-6.3,0-6.3-6.2c0-6.7,0-6.7,6.7-6.7c6.2,0,6.2,0,6.2,6.3C261.8,134.1,261.8,134.1,255.2,134.1z" fill="#E18E26"/>
	<path d="M159.8,51.1c-6.6,0-6.6,0-6.6-6.6c0-6.3,0-6.3,6.1-6.3c6.6,0,6.6,0,6.6,6.7C166,51.1,166,51.1,159.8,51.1z" fill="#E18E26"/>
	<path d="M38.3,166.3c0,6,0,6-6.1,6c-6.8,0-6.8,0-6.8-6.9c0-5.8,0-5.8,5.9-5.8c0.1,0,0.3,0,0.4,0C38.3,159.6,38.3,159.6,38.3,166.3z   " fill="#E18E26"/>
	<path d="M153.3,140.3c-3.5,0-6.3-2.8-6.3-6.3c0-3.4,2.6-6.1,6-6.2c3.6-0.1,6.5,2.5,6.5,6.1C159.6,137.4,156.8,140.3,153.3,140.3z" fill="#E18E26"/>
	<path d="M140.3,172.2c-3.5-0.1-6.3-3.1-6.2-6.5c0.2-3.3,3-6,6.3-6c3.4,0,6.4,3,6.4,6.4S143.8,172.3,140.3,172.2z" fill="#E18E26"/>
	<path d="M178.7,153.3c-0.1,3.3-3.3,6.4-6.6,6.3c-3.4-0.1-6.2-3.2-6.1-6.7c0.1-3.3,3-6.1,6.3-6.1   C175.7,146.8,178.8,149.9,178.7,153.3z" fill="#E18E26"/>
	<path d="M147,242.6c6.2,0,6.2,0,6.2,6.1c0,6.5,0,6.5-6.7,6.5c-6.1,0-6.1,0-6.1-6C140.5,242.6,140.5,242.6,147,242.6z" fill="#E18E26"/>
</g>
</svg>