<svg xmlns="http://www.w3.org/2000/svg" xmlns:xlink="http://www.w3.org/1999/xlink" version="1.1" id="Layer_1" x="0px" y="0px" viewBox="0 0 383.1 382.7" style="enable-background:new 0 0 383.1 382.7;" xml:space="preserve">
<g>
	<path d="M0,138.6c1.9-2.6,1.5-5.8,2.2-8.8c2.5-10.2,6.5-19.8,12.1-28.7c1.4-2.3,2.5-2.4,4.5-0.8c2.1,1.8,5.5,2.8,6.3,5   c0.8,2.3-2.2,4.6-3.5,7C-5,160.7,25.7,220.3,80.7,227c10.8,1.3,21.5,0.7,31.7-3c6.2-2.2,12.1-2.1,18.3-1.5   c13.1,1.4,26.3,2.7,39.4,4.1c0.3,0,0.7-0.1,1.3-0.2c-3.5-12.7-6.9-25.3-10.4-37.8c-0.9-3.2-0.7-5.9,0.5-9   c19.2-46.8-9.7-98.8-59.7-106.7C77.3,69.1,55.5,76,37,92.8c-2.2,1.9-3.2,2.5-5.4,0.1c-6.1-6.4-6.3-6.3,0.6-12   c53.1-44.2,134.1-14.4,146,53.7c2.8,16.1,1.3,31.8-4.5,47c-0.8,2.2-1,4.1-0.4,6.5c4,14.1,7.8,28.3,11.6,42.5c1.7,6.3-1.2,9.6-7.7,9   c-17.9-1.8-35.7-3.6-53.6-5.4c-1.6-0.2-2.9,0.1-4.4,0.6C67.3,252,13.7,221.6,1.8,168c-0.6-2.6-0.3-5.4-1.8-7.7   C0,153,0,145.8,0,138.6z" fill="#E18E26"/>
	<path d="M23.9,383.2c0-24.3,0-48.6,0-72.9c0-30,22.7-52.7,52.7-52.8c29.8,0,59.6,0.1,89.4-0.1c21.1-0.1,39.4-14.6,44.6-34.9   c2.5-9.8,1.6-19.5-2.1-28.9c-4.7-11.7-10.2-22.9-14.2-34.9c-7.5-22.7-6.4-45.1,2.7-67.1c0.9-2.1,0.9-3.8-0.1-5.9   c-10.1-21.1-20.1-42.2-30.1-63.3c-2.9-6.1-4.5-12.6-5.1-19.4c-0.2-2.1,0-3.3,2.6-3c2.8,0.3,6.3-0.9,8.4,0.4   c2.2,1.3,0.9,5.2,1.7,7.9c0.9,3.1,1.8,6.2,3.2,9.1c10.6,22.3,21.2,44.7,31.9,67c1.4,3,1.4,5.6,0,8.5c-10.6,22.8-10.8,45.9-1.3,69.1   c3.7,9.1,7.7,18,11.4,27.2c15.4,38.7-12.1,79.8-53.7,80.2c-29.3,0.3-58.6,0.1-87.9,0.1c-25,0-42,17-42,41.9c0,23.9,0,47.9,0,71.8   C31.9,383.2,27.9,383.2,23.9,383.2z" fill="#E18E26"/>
	<path d="M77.8,383.2c0-17.8,0-35.7,0-53.5c0-7.3,3-12.5,8.9-14.5c6.4-2.3,11.6-0.4,16.2,4.5c5.2,5.6,10.8,10.8,15.7,16.6   c12,14.2,27.8,21.8,44.9,27.5c77,25.5,157.8-16.3,185.9-94.7c5.4-15,8.9-30.5,13.4-45.8c0.8-2.8,1.6-3.4,4.5-2.6   c8.1,2.3,8.2,2.2,5.8,10.1c-4.9,16.7-8.5,33.8-15.4,49.8c-20.9,48.5-55.8,81.6-106.8,96.8c-9.1,2.7-18.4,4.4-27.9,5   c-0.6,0-1.3-0.1-1.5,0.7c-8.7,0-17.5,0-26.2,0c-0.3-1-1.2-0.7-1.9-0.8c-11.7-1.3-23.1-3.8-34.2-7.5c-19.1-6.2-36.4-15.2-49.8-30.8   c-4.6-5.4-9.7-10.3-14.7-15.4c-1.1-1.1-1.9-3.1-3.9-2.2c-1.9,0.8-1.1,2.9-1.1,4.4c0,17.4,0,34.9,0,52.3   C85.8,383.2,81.8,383.2,77.8,383.2z" fill="#E18E26"/>
	<path d="M318.3,178.2c0,12.1-3.1,23.4-9.3,33.7c-1,1.6-1.1,2.8-0.1,4.6c4.9,9.3,4.3,18.3-2.2,26.6c-12.3,15.7-24.8,31.2-37.3,46.7   c-8.6,10.6-23.2,12.1-33.7,3.7c-10.4-8.2-12.1-22.9-3.6-33.7c12.3-15.7,24.8-31.2,37.4-46.7c6.4-7.9,16.4-10.9,25.9-7.7   c2.6,0.9,3.6,0.4,4.8-1.9c11.8-22.2,6.5-50.4-12.9-66.5c-10.9-9.1-22.4-17.5-32.9-27c-30.5-27.4-49-61.6-56.5-101.9   c-1.4-7.8-1.2-7.8,6.7-8.2c4.1-0.2,4.7,1,5.2,5c1.7,13.8,6,26.9,11.6,39.6c11.7,26.6,29.3,48.4,52.2,66.1c7,5.4,13.9,11,20.7,16.6   C309.7,140,318.3,158.2,318.3,178.2z M300,228.1c0-5-3.1-9.4-7.9-11.1c-4.8-1.8-9.8-0.6-13.2,3.5c-7.2,8.8-14.2,17.7-21.3,26.5   c-1.2,1.4-1.1,2.1,0.4,3.2c5,3.9,10,7.8,14.9,11.9c1.6,1.3,2.4,1.4,3.7-0.4c6.7-8.5,13.5-17,20.3-25.4   C298.8,233.9,300,231.3,300,228.1z M250.5,286.8c3.2,0.1,6-0.8,8.1-3.1c2.8-3,5.2-6.3,7.9-9.4c1.2-1.4,0.1-1.9-0.8-2.6   c-5.1-4.1-10.3-8.2-15.4-12.4c-1-0.8-1.7-1.1-2.7,0.2c-2.3,3.1-4.9,6-7.1,9.2c-2.6,3.8-2.7,8-0.4,12   C242.4,284.6,245.9,286.7,250.5,286.8z" fill="#E18E26"/>
	<path d="M90.1,89.9c5.1,0,10.2,0,15.3,0c6.5,0,8.3,1.8,8.3,8.5c0,8.1,0.1,16.2-0.1,24.3c-0.1,2.7,0.8,3.2,3.3,3.2   c8.5-0.2,17-0.1,25.4-0.1c5.1,0,7.2,2.2,7.2,7.3c0,11.1,0,22.2,0,33.3c0,5.1-2.2,7.3-7.3,7.3c-8.6,0-17.2,0.1-25.8,0   c-2.3,0-2.9,0.5-2.9,2.8c0.2,8.6,0.1,17.2,0.1,25.8c0,5.1-2.1,7.3-7.2,7.3c-11.1,0-22.2,0-33.3,0c-5.3,0-7.3-2.1-7.4-7.6   c0-8.2-0.2-16.5,0.1-24.7c0.1-3.3-1-3.8-3.9-3.7c-8.2,0.2-16.5,0.1-24.7,0.1c-5.3,0-7.4-2.1-7.4-7.5c0-11,0-21.9,0-32.9   c0-5.4,2.1-7.4,7.5-7.4c8.6,0,17.2-0.1,25.8,0c2.1,0,2.7-0.5,2.7-2.7c-0.1-8.6-0.1-17.2,0-25.8c0-5.4,2.1-7.5,7.4-7.5   C78.9,89.9,84.5,89.9,90.1,89.9z M101.7,181.6c0-4.1,0-8.2,0-12.3c0-5.4,2.1-7.5,7.4-7.5c8.6,0,17.2-0.1,25.8,0   c2.1,0,2.8-0.5,2.7-2.6c-0.1-6.2-0.1-12.5,0-18.7c0-2.1-0.5-2.7-2.7-2.7c-8.6,0.1-17.2,0.1-25.8,0c-5.4,0-7.5-2.1-7.5-7.4   c0-8.6-0.1-17.2,0-25.8c0-2.1-0.5-2.8-2.6-2.7c-6.2,0.1-12.5,0.1-18.7,0c-2.1,0-2.7,0.5-2.7,2.7c0.1,8.6,0.1,17.2,0,25.8   c0,5.4-2.1,7.5-7.5,7.5c-8.6,0-17.2,0.1-25.8,0c-2.1,0-2.7,0.5-2.7,2.7c0.1,6.2,0.1,12.5,0,18.7c0,2.1,0.5,2.7,2.7,2.7   c8.6-0.1,17.2-0.1,25.8,0c5.4,0,7.5,2.1,7.5,7.5c0,8.6,0.1,17.2,0,25.8c0,2.1,0.5,2.7,2.7,2.7c6.4-0.1,12.7-0.1,19.1,0   c1.8,0,2.3-0.5,2.3-2.3C101.7,190.8,101.7,186.2,101.7,181.6z" fill="#E18E26"/>
	<path d="M383.1,170c-0.1,11.8-1.7,25-4.3,38.2c-0.5,2.5-1.4,2.8-3.4,2.2c-2.8-0.7-6.5-0.5-8.1-2.2c-1.8-1.9,0.4-5.3,0.8-8.1   c3.2-19.2,4.2-38.4,0.8-57.6c-1.3-7.5-3-14.9-6-21.9c-6.7-15.9-13.8-31.7-23.6-46c-8.5-12.5-19.5-21.9-34.8-25.3   c-5.6-1.2-11.3-1.6-17.1-0.8c-12.8,1.9-24.2-1.2-33.8-10.2c-5.4-5-11-9.8-16.4-14.7c-6.2-5.6-9.5-12.6-9.9-21   c-0.1-2,0.5-2.8,2.5-2.5c0.6,0.1,1.2,0,1.9,0c2.2,0,4.7-0.6,6.7,0.2c2.4,1,0.7,3.9,1.5,5.9c1.1,3,2.4,5.7,4.8,7.9   c6.3,5.7,12.6,11.3,19,16.9c6,5.3,13.2,6.7,20.9,5.7c25.1-3.3,44.7,6.4,60.4,25.4c4.4,5.3,8.3,10.9,11.4,17.1   c8.6,16.9,18.1,33.5,22.5,52.2C381.7,143.6,383.1,155.9,383.1,170z" fill="#E18E26"/>
	<path d="M238.1,309.2c-0.5,0.7-1,1.3-1.4,1.9c-4.8,6.1-9.6,12.1-14.2,18.2c-0.9,1.2-1.5,1.5-2.9,0.5c-8.3-5.7-8.3-5.7-2.2-13.6   c3.2-4.1,6.6-8.1,9.6-12.4c1.4-2,2.5-1.8,4.1-0.4c1.8,1.6,3.7,2.9,5.6,4.4C237.1,308.2,237.5,308.7,238.1,309.2z" fill="#E18E26"/>
	<path d="M274.9,332.4c0.4,1.1-0.1,1.4-0.8,1.6c-0.2,0.1-0.5,0.1-0.7,0.2c-9.5,3.4-9.5,3.4-12-6.2c-1-4.1-2-8.2-3.1-12.2   c-0.6-2-0.8-3.5,2.1-3.8c2.9-0.3,6.4-2.9,8.4-1.5c1.9,1.3,1.9,5.3,2.6,8.2C272.7,323.3,273.9,328,274.9,332.4z" fill="#E18E26"/>
	<path d="M203.4,287.5c-3.2,0-6.5-0.1-9.7,0c-1.6,0.1-2.4-0.4-2.1-2.1c0-0.1,0-0.2,0-0.4c-0.3-9.6-0.3-9.6,9.1-9.6   c4.2,0,8.5,0.1,12.7,0c1.6,0,2.4,0.4,2.1,2.1c0,0.1,0,0.2,0,0.4c0.3,9.6,0.3,9.6-9.1,9.6C205.4,287.5,204.4,287.5,203.4,287.5z" fill="#E18E26"/>
</g>
</svg>