<svg xmlns="http://www.w3.org/2000/svg" xmlns:xlink="http://www.w3.org/1999/xlink" version="1.1" id="Layer_1" x="0px" y="0px" viewBox="0 0 340.5 345.7" style="enable-background:new 0 0 340.5 345.7;" xml:space="preserve">
<g>
	<path d="M157,345.7c-4.5-2.6-5.8-6.6-5.5-11.5c0.3-5,0-10.1,0.1-15.1c0.1-5.4,3.1-9,7.8-9c4.6-0.1,8,3.4,8.1,8.7   c0.2,6,0.1,12.1,0,18.1c0,4.5-2.4,7.3-6.5,8.8C159.7,345.7,158.3,345.7,157,345.7z" fill="#E18E26"/>
	<path d="M159.7,51.2c34.3,0.6,63.9,12.7,88.4,36.8c19.2,18.9,38.4,38,57.6,56.9c6.6,6.5,10.9,14,12.4,23.2c0.8,4.9-1.4,8.9-5.7,10   c-4.5,1.2-8.8-1.2-9.7-6.3c-1.3-7.5-5.5-12.9-10.7-18.1c-18.3-17.9-36.4-35.9-54.5-53.8c-13.8-13.7-29.9-23.8-48.8-28.8   c-31.1-8.3-60.5-3.8-87.9,13.1c-6.6,4.1-12.5,9.1-18,14.5C63.2,118,43.6,137.4,24,156.8c-8.3,8.2-9.8,18.7-4.3,28.1   c1.3,2.1,2.9,3.9,4.7,5.7c19.4,19.1,38.3,38.7,58.1,57.3c34.2,32.2,73.7,39.8,117.9,23.9c1.7-0.6,3.4-1.3,5.1-1.6   c3.6-0.6,7.2,1.5,8.4,4.7c1.4,3.5,0.3,7.3-2.9,9.4c-3.8,2.5-8.1,3.8-12.3,5.1c-21.8,6.8-43.9,8.2-66.3,3.3   c-23.8-5.2-44.2-16.6-61.5-33.7c-19.3-19.1-38.6-38.1-57.8-57.2c-17-16.9-17.1-40-0.1-56.9c19.2-19.1,38.5-38.1,57.8-57.2   c18.1-17.9,39.7-29.5,64.7-34.5C143.6,51.9,151.6,51.1,159.7,51.2z" fill="#E18E26"/>
	<path d="M159.5,254.8c-44.6,0-81.2-36.6-81.2-81.2s36.6-81.2,81.2-81.2c44.5,0,81.1,36.6,81.1,81.2   C240.7,218.2,204.1,254.8,159.5,254.8z M94.4,173.6c0,35.9,29.2,65.1,65,65.2c35.7,0.1,65-29.1,65.3-65   c0.3-35.7-29.4-65.4-65.3-65.4C123.6,108.5,94.4,137.7,94.4,173.6z" fill="#E18E26"/>
	<path d="M282.8,189.7c4.8,0,9.6,0,14.4,0c6.3,0,9.5,3.1,9.6,9.4c0.1,7.2,0.1,14.3,0,21.5c0,2.3,0.7,2.8,2.8,2.7   c7.1-0.1,14.1-0.1,21.2,0c6.5,0,9.7,3.1,9.7,9.7c0,9.5,0,19,0,28.6c0,6.7-3.1,9.7-9.9,9.8c-7.1,0-14.1,0.1-21.2,0   c-2.1,0-2.6,0.6-2.6,2.7c0.1,7.1,0.1,14.1,0,21.2c0,6.7-3.1,9.8-9.9,9.8c-9.5,0-19,0-28.6,0c-6.7,0-9.7-3.1-9.8-9.9   c0-6.8-0.2-13.7,0.1-20.5c0.1-2.8-0.9-3.3-3.4-3.2c-6.8,0.2-13.7,0.1-20.5,0c-6.8,0-9.8-3.1-9.8-9.9c0-9.4,0-18.8,0-28.2   c0-6.8,3.1-9.9,9.8-9.9c6.9,0,13.9-0.2,20.8,0.1c2.7,0.1,3.1-0.8,3-3.2c-0.2-6.8-0.1-13.7,0-20.5c0-7,3.1-10,10-10   C273.4,189.7,278.1,189.7,282.8,189.7z M254.7,255.5c3.2,0,6.5,0,9.7,0c7.4,0,10.2,2.8,10.2,10.1c0,6.9,0.1,13.9-0.1,20.8   c-0.1,2.3,0.7,2.8,2.8,2.7c3.5-0.2,6.9-0.2,10.4,0c2.3,0.1,3.1-0.5,3-2.9c-0.2-7-0.1-14.1-0.1-21.2c0-6.6,3-9.6,9.7-9.6   c7.2,0,14.3-0.1,21.5,0c1.9,0,2.6-0.4,2.5-2.4c-0.2-3.8-0.1-7.6,0-11.4c0.1-1.9-0.5-2.4-2.4-2.4c-7.1,0.1-14.1,0.1-21.2,0   c-7,0-10-3.1-10.1-10c0-6.8-0.2-13.7,0.1-20.5c0.1-2.8-0.9-3.3-3.4-3.2c-3.1,0.2-6.3,0.2-9.4,0c-2.7-0.2-3.7,0.4-3.5,3.4   c0.3,6.7,0.1,13.4,0.1,20.1c0,7.1-3,10.1-10.2,10.2c-7.1,0-14.1,0.1-21.2,0c-1.7,0-2.3,0.4-2.3,2.2c0.1,3.9,0.1,7.8,0,11.8   c-0.1,1.8,0.6,2.3,2.3,2.2C247.1,255.4,250.9,255.5,254.7,255.5z" fill="#E18E26"/>
	<path d="M52,78.2c-2.4,0.1-4.4-1-6-2.6c-4.5-4.4-9-8.8-13.3-13.3c-3-3.1-3.4-6.6-1.6-9.8c1.8-3.1,4.9-4.5,8.5-3.9   c1.8,0.3,3.1,1.3,4.3,2.4c4.5,4.4,8.9,8.8,13.3,13.3c2.5,2.6,3.5,5.8,1.9,9.2C57.8,76.5,55.4,78.1,52,78.2z" fill="#E18E26"/>
	<path d="M38.8,298.8c-4,0-6.2-1.5-7.7-4.1c-1.5-2.7-1.6-5.5,0.3-7.9c4.9-6,10.3-11.5,16.3-16.3c3-2.4,7.2-1.8,9.8,0.9   c2.7,2.6,3.3,7,0.8,10.1c-4.7,5.8-10.2,11-15.8,15.9C41.2,298.5,39.6,298.8,38.8,298.8z" fill="#E18E26"/>
	<path d="M151.6,19.1c0-3-0.1-6,0-9.1c0.1-4.9,3.3-8.3,7.7-8.5c4-0.2,7.6,2.8,8,7.4c0.6,7,0.6,14.1,0,21.1c-0.5,4.6-3.9,7.4-8.2,7.1   c-4.2-0.2-7.2-3.4-7.5-8c0-0.2,0-0.4,0-0.7C151.6,25.4,151.6,22.3,151.6,19.1z" fill="#E18E26"/>
	<path d="M288.9,56.4c0.1,2.6-1.2,4.5-2.9,6.2c-4.2,4.2-8.3,8.4-12.6,12.6c-3.9,3.8-8.6,4-11.9,0.7c-3.3-3.2-3.1-8.1,0.7-11.9   c4.3-4.4,8.6-8.7,13-13c2.5-2.5,5.6-3.3,8.9-1.9C287.2,50.4,288.8,53,288.9,56.4z" fill="#E18E26"/>
	<path d="M108,175.8c-0.3-3.8,0.6-7.2,4.2-9.1c2.9-1.5,5.8-1.2,8.5,0.7c2.5,1.8,3.2,4.5,3.3,7.4c0.2,18.1,16,34.2,34.7,34.5   c4.5,0.1,7.5,2.3,8.4,5.8c0.9,3.6-0.5,7.1-3.6,8.9c-1.6,1-3.3,1.2-5.1,1.2C131.7,225,108.8,202.6,108,175.8z" fill="#E18E26"/>
	<path d="M159.7,157.4c8.9,0.1,16.2,7.4,16.1,16.3c0,9.1-7.5,16.3-16.6,16.2c-8.9-0.1-16.1-7.5-15.9-16.5   C143.4,164.3,150.6,157.3,159.7,157.4z" fill="#E18E26"/>
</g>
</svg>