<svg xmlns="http://www.w3.org/2000/svg" xmlns:xlink="http://www.w3.org/1999/xlink" version="1.1" id="Layer_1" x="0px" y="0px" viewBox="0 0 303.8 383.8" style="enable-background:new 0 0 303.8 383.8;" xml:space="preserve">
<g>
	<path d="M158.6,383.8c-1.8-1.5-4.1-1.3-6.2-1.8c-32.4-7.9-54.4-35.4-54.8-69.1c0-3.4-1-4.3-4.1-3.9c-2.2,0.3-4.5,0.1-6.7,0   c-4.6,0-6.2-1.2-7.3-5.8c-1.4-5.3-2.7-10.6-4-15.9c-0.4-1.7-1.2-2.6-3.1-3.1c-37.6-8.4-65.2-37.5-71.4-75.5c-0.8-4.8-1-9.7-1-14.5   c0-44,0-88,0-132.1c0-3.1,0.1-6.3,0.9-9.3c0.9-3,3-4.6,6.2-4.2c2.9,0.3,5.1,3,4.8,6.1c-1.5,15.7-0.4,31.4-0.7,47.1   c-0.2,10.8,0.1,21.7-0.1,32.5c-0.1,2.9,0.8,3.4,3.5,3.4c37.3-0.1,74.6-0.1,111.9-0.1c1.2,0,2.5-0.1,3.7,0.1c3,0.6,4.9,2.6,4.7,5.8   c-0.2,3.2-2,5-5.2,5.3c-1.2,0.1-2.5,0.1-3.7,0.1c-36.9,0-73.8,0.1-110.7-0.1c-3.6,0-4.2,1.1-4.2,4.3c0.2,14.3,0,28.7,0.1,43   c0.4,40.6,32,75.1,72.3,78.3c17.5,1.4,35.1,2.3,52.4-2.2c33.6-8.8,58.3-39.8,59.1-74.6c0.4-15.3,0-30.7,0.2-46c0-2.5-1-2.8-3.1-2.8   c-12.3,0.1-24.7,0-37,0c-1,0-2,0-3,0c-3.6-0.2-5.8-2.3-5.9-5.5c-0.1-3.3,2.3-5.7,6-5.7c11.2-0.1,22.4,0,33.7-0.1   c3,0,6.8,1.3,8.6-0.5c1.8-1.8,0.5-5.7,0.5-8.6c0-21.7,0-43.4,0-65.1c0-17.4-10.9-28.3-28.1-28.3c-7.5,0-15,0-22.4,0   c-1.1,0-2.5-0.5-3.1,1.2c-4.7,12.8-15.1,18.3-27.5,20.9c-11.8,2.5-23.3,1-34-4.9C73.7,48.8,68.8,44,66.3,37c-0.5-1.5-1.3-2-2.9-2   c-9.2,0.1-18.5,0-27.7,0.1c-4.4,0.1-8.5,1.6-12.3,3.9c-3.8,2.3-7,1.9-8.8-1.1c-1.8-3-0.8-6.1,2.9-8.4c5.7-3.6,11.9-5.6,18.7-5.6   c9-0.1,18,0,26.9-0.1c1.1,0,2.3,0.4,3-1.3C70.7,10.2,80.6,4.6,92.5,1.9c11.5-2.6,22.8-1.5,33.5,3.8c7,3.5,12.6,8.6,15.2,16.1   c0.7,2,1.8,2,3.4,1.9c7.9,0,15.7,0,23.6,0c22,0.1,38.2,16.3,38.2,38.3c0.1,44.4,0.2,88.8,0,133.2c-0.2,42.8-30.3,79.8-72,88.9   c-2.2,0.5-3.1,1.4-3.5,3.5c-1.2,5.3-2.8,10.6-4.1,15.9c-0.9,3.7-3,5.5-6.9,5.4c-2.9-0.1-5.7,0.1-8.6-0.1c-1.8-0.1-2.5,0.3-2.6,2.4   c-1.2,29.4,21.9,56.8,51.2,60.5c37,4.7,68-22.5,68.2-59.9c0.1-32.3,0-64.6,0-96.9c0-16,9.9-28.2,25.1-31.4   c18.5-3.9,36.9,10.3,37.1,29.3c0.3,27.1,0.2,54.1,0,81.2c0,2.9,0.7,4.1,3.7,3.6c1-0.2,2,0,3,0c5.1,0.1,7.3,2.5,6.7,7.6   c-1,8-2.1,16.1-3.2,24.1c-0.4,3.2-0.8,6.4-1.3,9.6c-0.6,4.1-2.2,5.8-6.3,5.9c-2.4,0-2.6,1-2.5,2.9c0.1,5.9,0,11.7,0,17.6   c0,7.7-1.4,10.2-5.5,10.3c-4.2,0-5.7-2.7-5.7-10.1c0-5.9-0.1-11.7,0-17.6c0-2-0.2-3.2-2.7-3.1c-3.6,0.2-5.4-2-5.9-5.4   c-1.6-11.7-3.2-23.4-4.7-35.2c-0.5-3.7,2-6.3,6-6.5c2.3-0.2,5.4,1,6.8-0.5c1.5-1.6,0.5-4.7,0.5-7.2c0-25.3,0.1-50.6,0-75.9   c0-7.9-3.8-13.9-10.8-17.5c-6.8-3.6-13.8-3.2-20.2,1.1c-6.3,4.2-8.9,10.3-8.9,17.9c0.1,32.2,0.4,64.4-0.1,96.5   c-0.5,30.8-15.2,52.9-43.2,66c-6,2.8-12.4,4.5-19,5c-0.5,0-1,0.1-1.2,0.7C170.1,383.8,164.3,383.8,158.6,383.8z M105.6,11.9   c-9.2,0-16.4,2-21.7,5.5c-10.3,6.9-10.3,17.2,0,24.1c11,7.3,28.7,7.3,39.7,0c10.4-6.9,10.3-17.5-0.3-24.3   C117.4,13.4,110.8,12,105.6,11.9z M119.5,286.4c-8.1,0-16-0.1-23.8,0c-2.9,0-7.1-1.5-8.4,0.6c-1.1,1.7,1,5.5,1.7,8.4   c0,0.1,0,0.2,0.1,0.4c0.2,1.5,1,2,2.6,2c7.7-0.1,15.4-0.1,23.2,0c1.4,0,2-0.4,2.3-1.7C117.9,292.9,118.7,289.8,119.5,286.4z    M284.8,309c-1.7,0-3.5,0-5.2,0c-1.2,0-1.8,0.2-1.6,1.7c1,7.1,1.7,14.3,2.9,21.4c0.5,3.3,3.4,1.2,5.2,1.6c1.5,0.3,2.5,0,2.7-2   c0.5-5.3,1.4-10.6,2.1-15.9C291.8,309,291.8,309,284.8,309z" fill="#E18E26"/>
	<path d="M40.2,211.6c-5.4,0-10.7,0-16.1,0c-4,0-6.6-2.2-6.6-5.6c0-3.4,2.5-5.6,6.5-5.6c11,0,21.9-0.1,32.9,0c3.8,0,6.1,2.2,6.2,5.5   c0,3.3-2.3,5.6-6,5.7C51.4,211.7,45.8,211.6,40.2,211.6z" fill="#E18E26"/>
	<path d="M40.3,115.1c5.5,0,11,0,16.4,0c3.9,0,6.2,2,6.3,5.3c0.1,3.5-2.3,5.8-6.2,5.9c-11,0.1-21.9,0.1-32.9,0c-4,0-6.5-2.4-6.4-5.8   c0.1-3.3,2.5-5.4,6.3-5.4C29.3,115,34.8,115.1,40.3,115.1z" fill="#E18E26"/>
	<path d="M31.6,169c-2.6,0-5.2,0.1-7.8,0c-3.7-0.1-6.2-2.4-6.2-5.6c0-3.3,2.4-5.5,6.1-5.6c5.4-0.1,10.7-0.1,16.1,0   c3.8,0,6.1,2.2,6.1,5.5c0,3.3-2.3,5.5-6.1,5.7C37,169,34.3,169,31.6,169z" fill="#E18E26"/>
</g>
</svg>