<svg xmlns="http://www.w3.org/2000/svg" xmlns:xlink="http://www.w3.org/1999/xlink" version="1.1" id="Layer_1" x="0px" y="0px" viewBox="0 0 382.9 340.2" style="enable-background:new 0 0 382.9 340.2;" xml:space="preserve">
<g>
	<path d="M-0.1,333.6c2.5-3.1,5.9-2.5,9.2-2.5c3,0,6.9,1,8.7-0.5c2.1-1.8,0.7-5.8,0.7-8.9c0-79.7,0-159.4,0-239   c0-6.7,0.7-7.4,7.6-7.4c14,0,27.9-0.1,41.9,0.1c2.5,0,3.7-0.7,4.7-3.1c2.8-6.9,5.7-13.8,8.9-20.5c4.5-9.4,11.8-14.7,22.6-13.6   c3.2,0.3,4.2-0.5,4.1-3.9c-0.3-9-0.1-18-0.1-26.9c0-5,1.3-6.3,6.1-6.3c51.4,0,102.7,0,154.1,0c4.9,0,6.2,1.3,6.2,6.2   c0,9.4,0.1,18.7-0.1,28.1c0,2.3,0.6,3.1,2.9,2.9c13-1.5,20.5,5.5,25.3,16.6c2.5,5.8,5.1,11.6,7.4,17.5c0.9,2.3,2.1,3.2,4.6,3.1   c14.3-0.1,28.7-0.1,43-0.1c5.4,0,6.5,1.1,6.5,6.6c0,81.6,0,163.1-0.1,244.7c0,3.7,0.7,5.2,4.6,4.7c3.1-0.4,6.2-0.1,9.3,0   c2.8,0.1,4.6,1.5,4.7,4.3c0.1,3-1.9,4.6-4.7,4.6c-6.7,0.2-13.5,0.2-20.2,0.2c-111,0-222,0-332.9,0c-6.2,0-12.5-0.2-18.7-0.1   c-2.7,0-4.8-0.7-6.5-2.8C-0.1,336-0.1,334.8-0.1,333.6z M187,195.9c0-25.8,0-51.6,0-77.4c0-2.2-0.3-3.2-2.9-3.2   c-40.8,0.1-81.5,0.1-122.3,0c-2.6,0-3.1,0.9-3,3.2c0.1,9.5,0,18.9,0,28.4c0,41.6,0,83.3-0.1,124.9c0,3.1,0.5,4.2,4,4.1   c40.1-0.1,80.3-0.2,120.4,0c3.5,0,3.9-1.1,3.9-4.2C186.9,246.5,187,221.2,187,195.9z M196,195.5c0,25.6,0,51.1-0.1,76.7   c0,2.8,0.5,3.7,3.6,3.7c40.3-0.1,80.5-0.1,120.8,0c3,0,4-0.6,3.9-3.8c-0.1-51-0.1-102,0-153c0-3.1-0.7-3.9-3.9-3.9   c-40.3,0.1-80.5,0.1-120.8,0c-2.9,0-3.7,0.6-3.7,3.6C196,144.4,196,170,196,195.5z M191.5,84.3c0-0.1,0-0.1,0-0.2   c-53.5,0-107,0-160.5,0c-1.8,0-3.6-0.7-3.5,2.6c0.2,16.1,0.1,32.2,0,48.3c0,2.2,0.7,2.7,2.8,2.6c5.5-0.1,11-0.1,16.5,0   c2.3,0.1,3.2-0.5,3.1-3c-0.2-7-0.1-14-0.1-20.9c0-6.4,1-7.3,7.4-7.3c47.1,0,94.3,0,141.4,0c42.6,0,85.3,0,127.9,0   c5.4,0,6.6,1.2,6.6,6.6c0,7.2,0.1,14.5-0.1,21.7c-0.1,2.6,0.8,3.1,3.1,3c5.2-0.2,10.5-0.2,15.7,0c2.7,0.1,3.6-0.4,3.5-3.4   c-0.2-15.6-0.2-31.2,0-46.8c0-2.9-0.8-3.4-3.5-3.4c-16.3,0.2-32.7,0.2-49,0.2C265.8,84.3,228.6,84.3,191.5,84.3z M191.5,74.9   c23.7,0,47.4,0,71.1,0.1c2.4,0,3.1-0.6,3.1-3.1c-0.1-19.6-0.1-39.1,0.1-58.7c0-3-1-3.4-3.6-3.4c-47.1,0.1-94.2,0.1-141.4,0   c-3.2,0-3.6,1.1-3.6,3.8c0.1,19.3,0.2,38.6,0.1,58c0,2.9,0.8,3.4,3.5,3.4C144.4,74.8,167.9,74.9,191.5,74.9z M27.5,217.9   c0,22.8,0,45.6,0,68.4c0,2.3,0.3,3.3,3,3.2c5.5-0.2,11-0.2,16.4,0c2.2,0.1,2.7-0.7,2.7-2.7c0-6.1,0.2-12.2,0.2-18.3   c0-39.4,0-78.8,0.1-118.2c0-3.2-0.8-4-3.9-3.8c-4.8,0.3-9.7,0.3-14.6,0c-3-0.2-3.9,0.6-3.9,3.8C27.6,172.8,27.5,195.4,27.5,217.9z    M355.4,218.3c0-22.8-0.1-45.6,0.1-68.4c0-2.8-0.7-3.6-3.5-3.4c-5.2,0.2-10.5,0.2-15.7,0c-2.4-0.1-3.2,0.5-3.2,3   c0.2,45.7-0.3,91.5,0.3,137.2c0,2.5,0.9,2.8,3,2.7c5.2-0.1,10.5-0.2,15.7,0c2.9,0.2,3.4-0.8,3.4-3.5   C355.4,263.5,355.4,240.9,355.4,218.3z M122.6,312.1c-20.2,0-40.4,0-60.6-0.1c-2.6,0-3.5,0.7-3.3,3.3c0.2,4.1,0.2,8.2,0,12.3   c-0.1,2.1,0.3,3,2.8,3c41-0.1,82-0.1,123,0c1.9,0,2.6-0.4,2.5-2.5c-0.2-4.2-0.2-8.5,0-12.7c0.2-2.8-0.7-3.5-3.5-3.5   C163.3,312.2,142.9,312.1,122.6,312.1z M259.9,330.7c20.3,0,40.6,0,60.9,0.1c2.5,0,3.6-0.4,3.4-3.2c-0.3-4.1-0.2-8.2,0-12.3   c0.1-2.4-0.6-3.2-3.1-3.2c-5.9,0.2-11.7,0.1-17.6,0.1c-34.6,0-69.3,0-103.9-0.1c-2.9,0-3.9,0.6-3.7,3.6c0.3,3.8,0.3,7.7,0,11.6   c-0.2,2.8,0.6,3.5,3.4,3.5C219.5,330.6,239.7,330.7,259.9,330.7z M123,284.9c-20.3,0-40.6,0-60.9,0c-2.3,0-3.3,0.4-3.1,3   c0.2,4.1,0.2,8.2,0,12.3c-0.1,2.5,0.8,3,3.1,3c12.5-0.1,24.9-0.1,37.4-0.1c28.2,0,56.3,0,84.5,0.1c2.3,0,3.3-0.5,3.1-3   c-0.2-4-0.3-8,0-12c0.2-2.9-0.8-3.4-3.5-3.4C163.4,284.9,143.2,284.9,123,284.9z M260.3,284.9c-20.4,0-40.9,0-61.3-0.1   c-2.3,0-3.3,0.4-3.1,3c0.2,4.1,0.2,8.2,0,12.3c-0.1,2.5,0.8,3,3.1,3c17.6-0.1,35.1-0.1,52.7-0.1c23.1,0,46.1,0,69.2,0.1   c2.3,0,3.3-0.5,3.1-3c-0.2-4-0.3-8,0-12c0.2-2.9-0.9-3.4-3.5-3.4C300.5,284.9,280.4,284.9,260.3,284.9z M49.8,314.7   c-0.1,0-0.2,0-0.3,0c0-4.6-0.1-9.2,0-13.8c0.1-1.9-0.5-2.6-2.5-2.5c-5.7,0.1-11.4,0.1-17.1,0c-2.1-0.1-2.4,0.8-2.4,2.6   c0.1,9.1,0.1,18.1,0,27.2c0,1.8,0.3,2.6,2.4,2.6c5.7-0.1,11.4-0.2,17.1,0c2.5,0.1,2.9-1,2.8-3.1C49.7,323.4,49.8,319,49.8,314.7z    M355.4,314.6c0-4.6-0.1-9.2,0-13.8c0-1.7-0.3-2.4-2.2-2.4c-5.8,0.1-11.7,0.1-17.5,0c-1.8,0-2.3,0.6-2.3,2.3   c0,9.1-0.1,18.1-0.3,27.2c-0.1,2.4,0.8,2.9,3,2.9c5.5-0.1,10.9-0.2,16.4,0c2.6,0.1,3-0.9,2.9-3.2   C355.3,323.3,355.4,318.9,355.4,314.6z M81.2,74.9c8.6,0,16.7,0,24.8,0c1.6,0,2.1-0.6,2.1-2.2c-0.1-7.8,0-15.7,0-23.5   c0-1.2,0.1-2-1.6-2.3c-8.2-1.1-12.6,0.9-16.6,8.3C86.5,61.3,84.2,67.9,81.2,74.9z M301.8,74.9c-3.3-7.6-5.7-14.8-9.6-21.3   c-3.6-6-9.5-8.3-16-6.7c-1.2,0.3-1.2,1-1.2,1.9c0,8,0,15.9,0,23.9c0,1.6,0.5,2.2,2.1,2.2C285,74.8,293.1,74.9,301.8,74.9z" fill="#E18E26"/>
	<path d="M83,167.6c0.1-21.9,18.2-39.9,40.1-39.7c21.8,0.1,39.6,18.1,39.7,39.9c0,21.9-18.2,40-40,40   C100.8,207.6,82.9,189.6,83,167.6z M92,167.7c0,17,13.9,31,30.8,31c16.9,0,31-14,31-30.9c0.1-16.9-13.9-31-30.9-31   C105.9,136.8,92,150.7,92,167.7z" fill="#E18E26"/>
	<path d="M143.5,241.5c0-5.5,0-11,0-16.5c0-3.9,1.5-5.4,5.4-5.4c7.1-0.1,14.2-0.1,21.3,0c4,0,5.5,1.5,5.5,5.3c0,11.2,0,22.4,0,33.6   c0,3.7-1.6,5.2-5.2,5.3c-7.2,0.1-14.5,0.1-21.7,0c-3.8,0-5.3-1.6-5.3-5.6C143.5,252.7,143.5,247.1,143.5,241.5z M152.5,241.8   c0,0.6,0,1.2,0,1.9c0.2,3.7-1.6,8.9,0.7,10.7c2.5,1.9,7.4,0.5,11.2,0.7c2.1,0.1,2.5-0.7,2.4-2.6c-0.1-7.1-0.1-14.2,0-21.3   c0-1.8-0.3-2.7-2.4-2.6c-3.1,0.2-6.2,0.2-9.3,0c-2.2-0.1-2.7,0.7-2.6,2.7C152.6,234.8,152.5,238.3,152.5,241.8z" fill="#E18E26"/>
	<path d="M300,167.8c0,22-18.1,40.1-40,39.9c-21.8-0.1-39.6-18-39.8-39.8c-0.2-21.8,18-40,39.9-40.1C282,127.8,300,145.8,300,167.8z    M291,167.8c0-17-13.9-30.9-30.9-31c-17,0-30.9,13.9-31,30.9c-0.1,16.9,14,31,30.9,31C277,198.8,291,184.8,291,167.8z" fill="#E18E26"/>
	<path d="M239.4,241.5c0,5.5,0,11,0,16.5c0,4.4-1.4,5.9-5.7,5.9c-7,0-14,0-20.9,0c-4.1,0-5.6-1.6-5.6-5.7c0-11,0-21.9,0-32.9   c0-4.2,1.4-5.7,5.5-5.7c7.1-0.1,14.2-0.1,21.3,0c3.9,0,5.3,1.5,5.4,5.5C239.4,230.6,239.4,236.1,239.4,241.5z M230.4,241.5   c0-3.6-0.1-7.2,0-10.8c0-1.6-0.4-2.2-2.1-2.1c-3.1,0.1-6.2,0.2-9.3,0c-2.2-0.1-3.1,0.4-2.9,2.8c0.2,4.1,0,8.2,0.1,12.3   c0.1,3.7-1.6,8.7,0.7,10.7c2.3,1.8,7.1,0.4,10.8,0.6c2,0.1,2.9-0.4,2.8-2.6C230.3,248.8,230.4,245.2,230.4,241.5z" fill="#E18E26"/>
	<path d="M145.4,20.3c4.1,0,8.2,0,12.3,0c2.9,0,5.2,1,5.4,4.4c0.2,2.9-1.7,4.4-5.5,4.6c-2.6,0.1-6-1.2-7.5,0.5   c-1.6,1.8-0.5,5.2-0.5,7.9c-0.1,5,0.1,10-0.1,14.9c-0.1,2.6,0.9,3.2,3.2,3c1.7-0.2,3.5,0,5.2,0c3,0,5.2,1.2,5.2,4.5   c0,3.3-2.3,4.5-5.3,4.5c-5.1,0.1-10.2,0-15.3,0c-3.6,0-7.2,0.1-10.8-0.1c-2.8-0.1-4.8-1.6-4.6-4.7c0.1-2.9,2-4.1,4.7-4.2   c0.1,0,0.2,0,0.4,0c2.7-0.2,6.3,1.2,7.9-0.6c1.7-1.9,0.5-5.5,0.5-8.3c0.1-4.9-0.1-9.7,0.1-14.6c0.1-2.6-0.8-3.2-3.2-3   c-1.9,0.2-3.7,0.1-5.6,0c-2.9-0.1-4.8-1.4-4.8-4.5c0-3.1,2.1-4.4,4.9-4.4C136.5,20.2,141,20.3,145.4,20.3z" fill="#E18E26"/>
	<path d="M255.9,36.1c-0.2,3.6,0.4,8-0.6,12.3c-2.4,10.4-10.2,16.7-19.8,16c-9.6-0.7-17.2-8.5-17.7-18.9c-0.4-6.8-0.1-13.7-0.2-20.5   c0-2.9,1.6-4.6,4.3-4.6c2.9-0.1,4.6,1.9,4.6,4.8c0.1,5.9,0.1,11.7,0,17.6c0,2.5,0.4,5,1.5,7.2c1.8,3.5,4.6,5.5,8.6,5.5   c4.1,0,7-2.1,8.8-5.8c1-2.2,1.4-4.5,1.4-6.9c0-5.6,0-11.2,0-16.8c0-3.5,1.8-5.7,4.5-5.7c2.8,0,4.4,2,4.4,5.7   C255.9,29.1,255.9,32.3,255.9,36.1z" fill="#E18E26"/>
	<path d="M197.6,20.3c0.2,0,1.4,0,2.6,0.2c2.4,0.5,3.6,2.2,3.4,4.6c-0.1,2.3-1.4,3.7-3.7,4c-1.6,0.2-3.2,0.1-4.9,0.2   c-4.3,0.3-6.7,2.5-6.9,6.8c-0.1,4.2-0.1,8.5,0,12.7c0.1,4.3,2.4,6.6,6.8,6.9c1.6,0.1,3.2,0,4.9,0.1c2.3,0.2,3.6,1.6,3.8,3.9   c0.2,2.4-0.9,4-3.3,4.7c-10.1,3-20.5-4.3-21.1-14.8c-0.2-4-0.1-8-0.1-12C179.2,26.5,185.4,20.3,197.6,20.3z" fill="#E18E26"/>
	<path d="M109.6,180.2c-1.8,0.1-3.2-0.8-4-2.3c-0.9-1.7-0.9-3.5,0.4-4.9c7.3-7.4,14.5-14.7,22-21.9c1.8-1.8,4.2-1.5,6,0.4   c2.1,2.3,1.6,4.6-0.5,6.6c-6.8,6.8-13.6,13.6-20.4,20.4C112.2,179.4,111.1,180.2,109.6,180.2z" fill="#E18E26"/>
	<path d="M140.6,169.8c0,0.8-0.8,1.9-1.8,2.9c-3.7,3.7-7.4,7.4-11.1,11.1c-2.2,2.2-4.6,2.7-6.9,0.4c-2.1-2.1-1.7-4.5,0.4-6.6   c3.8-3.9,7.7-7.8,11.6-11.6c1.4-1.4,3.1-2,5.1-1C139.7,165.8,140.6,167.2,140.6,169.8z" fill="#E18E26"/>
	<path d="M246.9,180.2c-1.9,0.1-3.4-0.8-4.2-2.6c-1-2-0.4-3.8,1.2-5.4c4.3-4.3,8.6-8.6,12.9-12.9c2.5-2.5,5.1-5.1,7.6-7.6   c2.1-2.1,4.5-2.5,6.6-0.4c2.3,2.2,1.9,4.7-0.3,6.9c-6.7,6.8-13.5,13.5-20.3,20.3C249.5,179.4,248.4,180.2,246.9,180.2z" fill="#E18E26"/>
	<path d="M261.3,185.5c-1.8,0-3.1-0.8-3.9-2.4c-0.8-1.7-0.8-3.5,0.6-4.8c4.2-4.3,8.3-8.5,12.6-12.6c1.8-1.7,3.9-1.5,5.7,0.1   c1.8,1.6,2.3,4,0.7,5.7c-4.3,4.7-8.9,9-13.3,13.4C263.1,185.5,262.2,185.5,261.3,185.5z" fill="#E18E26"/>
</g>
</svg>