<svg xmlns="http://www.w3.org/2000/svg" xmlns:xlink="http://www.w3.org/1999/xlink" version="1.1" id="Layer_1" x="0px" y="0px" viewBox="0 0 357.9 383.8" style="enable-background:new 0 0 357.9 383.8;" xml:space="preserve">
<g>
	<path d="M256.8,383.8c-2.5-1.7-3.4-4.2-4-7.1c-4.2-20.6-8.3-41.3-8.8-62.4c-0.1-2.8-1-2.7-3.1-1.7c-5.7,2.5-11.4,4.9-17.2,7.2   c-4,1.7-7.3,0.7-8.5-2.4c-1.3-3.3,0.1-6.1,4.2-7.8c7.2-3.1,14.4-6.1,21.6-9.1c1.6-0.7,2.7-1.2,2.7-3.4c0-23.4,4.9-46.3,9-69.2   c2.2-12.1,3.3-24.4,4.1-37.3c-5.2,2.4-10.1,4.7-15,6.9c-13.7,6.3-27.3,12.6-40.9,18.9c-2.4,1.1-4.7,1.7-7,0c-3.7-2.7-2.7-7.8,2-10   c13.8-6.5,27.7-12.9,41.6-19.3c5.9-2.7,11.7-5.5,17.6-8.1c1.8-0.8,2.4-1.8,2.3-3.7c-0.2-4.4-0.2-8.7-0.3-13.1   c-0.1-4.1,1.8-6.7,5.2-7c3.2-0.3,5.4,1.7,6.1,5.7c0.5,2.8,1,5.7,1.1,8.5c0.1,2.3,1,2.4,2.8,1.5c4.5-2.2,9-4.3,13.5-6.3   c1.6-0.7,2-1.4,1.1-3c-1.9-3.8-3.6-7.6-5.4-11.5c-1.8-3.9-1.2-6.9,1.7-8.5c2.9-1.7,5.6-0.8,8,2.9c0.7,1.2,1.2,1.5,2.6,0.8   c3.4-1.7,7-3.3,10.5-4.8c1.8-0.7,1.6-1.7,1.1-3.2c-1.8-4.6-3.6-9.3-5.3-13.9c-1.4-3.8-0.3-7,2.8-8.1c3.2-1.2,6.2,0.2,7.7,4   c1.8,4.4,3.5,8.8,5,13.3c0.6,1.9,1.3,2.3,3.1,1.4c3.4-1.8,6.9-3.4,10.5-4.9c6.4-2.7,12.6-0.5,15.7,5.8c2.3,4.7,4.5,9.4,6.6,14.2   c2.9,6.6,0.6,12.7-5.9,15.9c-5,2.5-10.1,4.8-15.2,7.1c-1.9,0.8-2.5,1.6-1.9,3.8c3,12.7,5.5,25.6,7.2,38.5c0.6,4.3-1.2,7.1-4.7,7.6   c-3.2,0.4-5.8-1.7-6.4-5.8c-1.7-11.6-3.8-23.1-6.4-34.5c-0.2-1.1-0.6-2.2-0.9-3.4c-1.7,0.7-3.2,1.5-4.8,2.1c-2.4,0.9-3.9,1.7-2.6,5   c1.1,2.8-0.5,5.4-3.6,6.4c-3.1,1-5.4-0.2-6.8-3c-2.1-4.1-4-8.3-5.8-12.5c-0.7-1.7-1.4-2.2-3.3-1.3c-5,2.5-10.1,4.8-15.2,7   c-2,0.8-2.1,1.9-1.5,3.8c3,10.5,5.9,21.1,8.8,31.6c1.1,4-0.1,7-3.3,7.9c-3.5,1.1-6.2-0.6-7.4-4.8c-1.4-4.6-2.6-9.3-4.8-13.9   c-0.5,3.8-1,7.6-1.4,11.5c-1.7,14.7-5.2,29.2-7.5,43.8c-1.6,10-2.6,20-2.9,30.1c-0.1,1.8,0.1,2.6,2.2,1.6   c11.2-4.8,22.4-9.6,33.7-14.2c2.1-0.8,1.9-1.7,1.1-3.3c-1.9-3.8-3.6-7.6-5.3-11.5c-1.6-3.7-0.9-6.5,2-8.1c2.9-1.6,5.7-0.8,7.7,2.8   c1.1,2,2.1,1.3,3.5,0.6c11-5.1,22.1-10.2,33.2-15.3c7.9-3.6,13.8-1.5,17.5,6.2c2.1,4.4,4.2,8.7,6.1,13.2c2.8,6.4,0.5,12.7-5.6,15.8   c-2.8,1.4-5.6,2.7-8.5,3.9c-3.2,1.3-6.1,0-7.4-3c-1.2-2.8-0.1-5.5,2.8-7.2c0.3-0.2,0.7-0.2,1-0.4c2.4-1.5,6.6-1.7,7.1-4.1   c0.5-2.2-1.9-5.1-3.1-7.7c-3.4-7.3-3.4-7.3-10.7-3.9c-9.1,4.2-18.2,8.6-27.4,12.6c-2.6,1.1-2.7,2.2-1.5,4.3   c0.5,0.7,0.8,1.6,1.1,2.3c1.5,3.2,2.1,7.5,4.6,9.1c2.7,1.8,6-2.1,9.1-3.1c3.4-1.1,6.1,0,7.4,3c1.2,2.8,0.2,5.5-2.8,7.2   c-1.2,0.7-2.5,1.2-3.7,1.8c-2.8,1.3-6,1.9-4.1,6.6c1,2.5-1.1,4.8-3.8,5.6c-2.8,0.8-5.3-0.2-6.6-2.9c-2-4.1-4.1-8.3-5.8-12.5   c-0.9-2.3-2-2.4-4.1-1.5c-12.3,5.3-24.7,10.5-37.1,15.6c-2.3,0.9-3.1,2-3,4.7c0.5,20.7,4.1,40.9,8.2,61c0.2,1,0.2,2,0.6,2.9   c1.4,3.8,0.7,7.2-2.4,9.9C259.7,383.8,258.2,383.8,256.8,383.8z M341.2,153.6c-0.1-0.3-0.3-0.6-0.5-1c-1.9-4.1-3.7-8.1-5.6-12.2   c-0.6-1.3-1.3-1.4-2.6-0.8c-11.2,5.3-22.5,10.5-33.7,15.6c-1.6,0.7-2,1.4-1.1,3c1.9,3.8,3.7,7.6,5.3,11.5c0.8,1.8,1.6,1.7,3.1,1   c11.1-5.2,22.3-10.3,33.4-15.5C340.2,154.9,341.3,154.9,341.2,153.6z" fill="#E18E26"/>
	<path d="M76.4,383.8c-3.1-2.1-4.1-4.7-3.3-8.6c5.5-25.7,9.9-51.6,9.1-78.1c-0.2-6.6-0.9-13.2-1.1-19.8c-0.1-1.9-0.8-2.8-2.6-3.3   c-4.4-1.2-8.8-2.5-13.2-3.9c-1.9-0.6-2.8-0.3-3.3,1.9c-0.8,3.9-1.9,7.7-2.9,11.6c-1.1,4.1-3.5,6.2-6.7,5.7c-3.3-0.5-5-2.9-4.4-7.3   c0.3-2.5-1.3-2.3-2.6-2.6c-11.9-3.1-23.8-6.2-35.7-9.3c-7.5-1.9-11-7.7-9.1-15.3c1.2-4.8,2.4-9.7,3.8-14.4c2-7,7.6-10.4,14.6-8.6   c12.2,3,24.4,6.1,36.5,9.4c2.1,0.5,3,0.5,3.7-1.8c1-3.3,3.6-4.3,6.8-3.6c2.8,0.6,4.5,3.5,3.8,6.8c-0.9,4.4-2,8.8-3.4,13   c-0.9,2.7,0.1,3.5,2.4,4.1c3.5,0.9,6.9,1.9,10.8,3.1c-3.4-19.2-7.7-37.9-9-57.1c-1.3,0.3-1.2,1.4-1.4,2.1   c-1.2,4.3-2.4,8.6-3.6,12.9c-1.2,3.9-3.8,5.5-7.2,4.6c-3.1-0.9-4.5-3.8-3.5-7.5c3-11.2,6-22.3,9.2-33.4c2.2-7.5,4-15.2,4.9-23   c0.5-4.3,2.7-6.4,6-6.1c3.3,0.3,5.4,2.8,5.2,6.9c-0.7,20.7,0.7,41.4,3.8,61.9c2.1,13.4,4.7,26.7,6.9,40.1c0.3,2.1,1.6,2.5,3.2,3   c15.6,4.6,31.2,9.2,46.9,13.8c0.8,0.2,1.7,0.5,2.5,0.8c3.7,1.3,5.3,3.9,4.3,7.1c-0.9,3.2-3.7,4.7-7.4,3.7   c-6.2-1.7-12.4-3.7-18.6-5.5c-9.5-2.8-19-5.7-28.7-8.5c0,2.4-0.1,4.4,0,6.5c1.9,27.3-0.9,54.3-6.5,81c-0.6,3-1.3,6.1-1.8,9.2   c-0.5,3.3-1.4,6.3-3.8,8.8C79.4,383.8,77.9,383.8,76.4,383.8z M55.3,253.2c-0.2-0.8-1.2-0.9-2.1-1.2c-11.9-3-23.8-6.1-35.6-9.2   c-1.8-0.5-2.3-0.1-2.7,1.6c-1,4.1-2.1,8.2-3.2,12.2c-0.4,1.5-0.1,2.3,1.4,2.7c12.1,3.1,24.3,6.2,36.4,9.3c0.9,0.2,1.8,0.5,2.1-0.7   C52.8,263.3,54,258.5,55.3,253.2z" fill="#E18E26"/>
	<path d="M145.5,7.9c-1.9,9.3-2.5,19.7-5.7,29.5c-5.7,17.3-18.2,27.4-35.9,31.3c-9.5,2.1-19.2,3.2-28.2,6.9   c-13.4,5.5-23.4,14.9-29.8,28c-2.1,4.3-3.9,8.9-6.1,13.2c-1.4,2.9-4.7,3.9-7.3,2.6c-2.8-1.5-4-4-2.9-6.9   c6.5-16.8,15.3-31.8,31.1-41.7C71.2,64,83.1,61.5,95,59c3.8-0.8,7.6-1.4,11.3-2.6c14.9-5,22.6-15.8,24.8-31.1   c1-6.6,2.2-13.3,3.5-19.8c0.9-4.4,5.1-6.2,8.5-3.9C145,2.8,145.7,4.7,145.5,7.9z" fill="#E18E26"/>
	<path d="M197,0.6c3.1,0,5.1,2.1,5.9,6.1c1.4,8,2.5,16,4.3,23.9c3.4,14.8,13,23.6,27.7,26.9c8.7,2,17.6,3.2,26.2,6   c18,6,31.3,17.5,39.9,34.4c1.9,3.6,1,6.8-2,8.3c-3,1.6-6,0.4-7.9-3.2c-9.2-17.5-23.7-27.7-43-31.3c-5.6-1.1-11.2-2.2-16.8-3.6   c-20.1-5-31.8-17.9-35.8-38.1c-1.4-7.1-2.6-14.2-3.7-21.3C191,3.9,193.1,0.7,197,0.6z" fill="#E18E26"/>
	<path d="M1.4,215.7C3,204.1,5,192.6,7.6,181.2c3.6-16.2,8.1-32,13.6-47.7c0.2-0.5,0.4-0.9,0.6-1.4c1.4-3.2,4.2-4.6,7.3-3.5   c2.7,1,4.2,3.8,3.3,7c-1.4,4.9-3.2,9.7-4.8,14.5c-6.8,21.3-11.5,43-14.7,65.1c-0.3,2.1-0.7,4.2-2.7,5.5c-1.8,1.2-3.7,1.4-5.7,0.4   C2.3,220.1,1.2,218.3,1.4,215.7z" fill="#E18E26"/>
	<path d="M173.7,212.2c0.4-6.6,4-12.6,11.2-16.2c3.6-1.8,6.7-0.8,8.3,2.3c1.4,3,0.4,5.7-3.1,7.7c-4,2.3-5.8,5.4-5.1,9   c0.7,3.6,2.9,5.9,6.5,6.9c1.6,0.4,3.2,0,4.8-0.4c3.7-0.8,6.6,0.7,7.3,3.8c0.8,3.3-0.9,5.9-4.5,7.1   C186.8,236.5,173.6,226.8,173.7,212.2z" fill="#E18E26"/>
	<path d="M196.8,315.2c0.4-6.5,4-12.5,11.5-16c3.4-1.6,6.5-0.7,8,2.3c1.5,2.9,0.4,5.8-3,7.7c-4.7,2.8-6.4,6.6-4.7,10.8   c1.7,4.3,5.3,5.9,10.7,4.8c3.7-0.8,6.7,0.7,7.5,3.8c0.9,3.3-1,6.1-4.8,7.2C209.5,339.6,196.8,330.1,196.8,315.2z" fill="#E18E26"/>
	<path d="M146.4,307.6c-2.3,0-4.5-0.2-6.5-1.2c-2.6-1.3-3.8-3.6-2.9-6.5c0.8-2.9,3-4.1,5.9-4.1c0.9,0,1.7,0.4,2.6,0.5   c4.5,0.4,7.9-1.7,9.2-5.9c1.2-4-0.5-7.8-4.6-9.8c-1.8-0.9-3.6-1.8-4.3-3.9c-0.8-2.2-0.2-4.2,1.4-5.8c1.8-1.7,3.8-1.9,6.2-1.1   c8.4,2.9,14.1,12.2,12.7,20.9C164.4,300.7,156.3,307.7,146.4,307.6z" fill="#E18E26"/>
</g>
</svg>