<svg xmlns="http://www.w3.org/2000/svg" xmlns:xlink="http://www.w3.org/1999/xlink" version="1.1" id="Layer_1" x="0px" y="0px" viewBox="0 0 315.4 349.1" style="enable-background:new 0 0 315.4 349.1;" xml:space="preserve">
<g>
	<path d="M240.9,302.6c-26,0.1-51.9,0.2-77.9,0.3c-3.3-1.2-6.6-1.4-9.8,0.1c-7.6-0.1-15.2-0.2-22.8-0.2c-18.1-0.1-36.1-0.1-54.2-0.2   c-3.2-0.9-6.5-0.9-9.7,0.2c-0.3,0-0.6,0-0.9,0.1c-6-0.1-12-0.2-17.9-0.2c-2.6,0-5-0.3-6.9-2.2c-2.4-2.4-3.3-5.2-2.1-8.5   c1.4-3.8,4.3-5.3,8.1-5.4c10.1-0.1,20.2,0,30.3,0c4.7,0,9.5-0.1,14.2,0c2,0.1,2.8-0.4,2.8-2.7c-0.1-24.8-0.1-49.6,0-74.4   c0-2.7-1.3-2.7-3.2-2.6c-17,0-33.9,0-50.9,0c-19.9,0-37.7-14.8-41.3-34.4c-0.5-2.6-0.5-5.2-0.5-7.8c0-35.8,0.4-71.6-0.2-107.3   C-2.4,35.2,18.3,15,40,15.1c78.4,0.4,156.8,0.5,235.3,0c22.3-0.1,42.6,20.6,42.2,42.4c-0.7,35.8-0.2,71.6-0.2,107.3   c0,23.3-18.7,42-42,42c-16.8,0-33.7,0.1-50.5,0c-2.5,0-3.4,0.5-3.4,3.2c0.1,24.4,0.1,48.9,0,73.3c0,2.7,0.9,3.3,3.4,3.2   c14-0.1,27.9-0.1,41.9-0.1c1.1,0,2.3,0,3.4,0.1c4.4,0.6,7.4,3.9,7.3,8c0,4.1-3,7.5-7.5,7.9c-3.7,0.3-7.5,0.1-11.2,0.1   c-2.5,0-5,0.1-7.5,0.1c-2.9-1.5-6-0.1-8.9-0.7C241.8,302.3,241.3,302.4,240.9,302.6z M157.7,127c46.8,0,93.5,0,140.3,0.1   c2.8,0,3.5-0.6,3.5-3.4c-0.1-22.2-0.1-44.4-0.1-66.6c0-14.3-11.6-25.8-25.9-25.8c-78.5,0-157.1,0-235.6,0   c-14.3,0-25.8,11.6-25.8,25.9c0,22.1,0.1,44.1-0.1,66.2c0,3.2,0.9,3.8,3.9,3.8C64.5,127,111.1,127,157.7,127z M157.7,142.9   c-46.8,0-93.5,0-140.3-0.1c-2.7,0-3.6,0.6-3.5,3.4c0.2,6.1,0.5,12.3,0,18.3c-1.1,12.8,12.6,26.8,26.3,26.4   c23.4-0.7,46.9-0.3,70.3-0.3c54.9,0,109.7-0.2,164.6,0.3c14,0.1,27.4-13.7,26.4-26.3c-0.5-5.9-0.3-12,0-17.9   c0.1-3.1-0.7-3.9-3.8-3.9C251,142.9,204.4,142.9,157.7,142.9z M157.7,286.4c15,0,29.9-0.1,44.9,0.1c2.4,0,3.1-0.6,3.1-3   c-0.1-24.5-0.1-49.1,0-73.6c0-2.4-0.7-2.8-2.9-2.8c-30,0.1-60.1,0.1-90.1,0c-2.3,0-2.9,0.5-2.9,2.9c0.1,24.5,0.1,49.1,0,73.6   c0,2.5,0.7,3,3.1,3C127.8,286.4,142.8,286.4,157.7,286.4z" fill="#E18E26"/>
	<path d="M153.1,303c3.3-1.5,6.5-1.3,9.8-0.1c1.6,0.6,3.1,1.2,4.7,1.9c10.6,4.8,16.2,16.5,13.2,28c-2.7,10.7-13.5,18.5-24.3,17.8   c-11.9-0.9-21.2-9.5-22.7-21.1c-1.4-11.4,5.6-22.1,16.8-25.6C151.5,303.6,152.3,303.3,153.1,303z M157.7,334.4c4.5,0,8.1-3.6,8-8   c-0.1-4.2-3.5-7.6-7.6-7.6c-4.9,0.1-8.3,3.1-8.4,7.6C149.6,330.8,153.2,334.4,157.7,334.4z" fill="#E18E26"/>
	<path d="M65.5,302.9c0.3,0,0.6,0,0.9-0.1c3.3-0.3,6.5,0.1,9.8,0.7c11.6,3.3,19,14.2,17.5,25.7c-1.7,12.3-11.5,21.2-23.6,21.3   c-11.6,0.1-22.2-8.9-23.8-20.2c-1.7-12.4,5.2-23.2,17.2-26.6C64.1,303.5,64.8,303.2,65.5,302.9z M77.8,326.6   c0.1-4.3-3.1-7.8-7.2-7.8c-5.1-0.1-8.6,3.1-8.6,7.7c0,4.3,3.4,7.8,7.7,7.9C74.2,334.5,77.7,331.2,77.8,326.6z" fill="#E18E26"/>
	<path d="M240.9,302.6c0.5-0.2,0.9-0.3,1.4-0.5c2.9,1.3,6.2,0.2,9.1,1.4c11.8,2.9,19.1,13.5,17.8,26.1   c-1.1,11.4-11.1,20.4-23.1,20.9c-11.3,0.5-22.1-8.1-24.1-19.3c-2.2-12.2,4.2-23.2,15.7-27.1C238.8,303.7,240.3,304.1,240.9,302.6z    M245.4,334.4c4.5,0,8.1-3.5,8-8c0-4.2-3.4-7.7-7.5-7.7c-5,0-8.3,3-8.4,7.5C237.5,330.9,240.9,334.4,245.4,334.4z" fill="#E18E26"/>
	<path d="M76.2,303.6c-3.2-0.7-6.5-1.1-9.8-0.7c3.2-1,6.4-1.1,9.7-0.2C76.1,303,76.2,303.3,76.2,303.6z" fill="#E18E26"/>
	<path d="M251.4,303.5c-2.9-1.1-6.2-0.1-9.1-1.4c3,0.6,6.1-0.8,8.9,0.7C251.3,303,251.3,303.2,251.4,303.5z" fill="#E18E26"/>
	<path d="M93.9,111.2c-7.7-0.3-15.5,0.8-23.1-0.9c-15.6-3.6-25.6-17.3-24.7-33.6c0.8-14.9,12.7-27.7,28.2-29   c13.4-1.1,26.9-1.3,40.3,0.1c15.2,1.6,27,15.6,27.1,31.3c0.1,15.6-11.8,29.5-26.9,31.6C107.9,111.6,100.9,110.8,93.9,111.2z    M93.8,95c5.5,0,11,0.1,16.5,0c8.9-0.3,15.5-7.1,15.4-15.9c0-8.8-6.6-15.6-15.5-15.8c-10.8-0.2-21.7-0.2-32.5,0   C68.8,63.4,62,70.3,61.9,79c-0.1,8.8,6.7,15.8,15.8,16C83.1,95.1,88.4,95,93.8,95z" fill="#E18E26"/>
	<path d="M222.8,47.1c5.5,0.3,12.4-0.5,19.2,0.4c15.6,2,27.3,15.5,27.4,31.4c0.1,16.1-11.7,30-27.5,31.6   c-12.8,1.3-25.7,1.1-38.5,0.2c-17.5-1.2-30.3-15.6-29.7-32.3c0.6-17.6,14.1-30.8,32.1-31.3C210.9,47,216.2,47.1,222.8,47.1z    M222.1,63.2c-5.6,0-11.2-0.1-16.8,0c-8.9,0.2-15.5,7-15.5,15.8c0,8.8,6.6,15.7,15.5,15.9c10.8,0.2,21.7,0.2,32.5,0   c9-0.1,15.8-7.2,15.8-16c-0.1-8.6-6.8-15.4-15.7-15.7C232.5,63.1,227.3,63.2,222.1,63.2z" fill="#E18E26"/>
	<path d="M158.1,159c38.8,0,77.5,0,116.3,0c7.2,0,10.9,2.6,11,7.7c0.1,5.3-3.7,8.1-11,8.1c-77.8,0-155.6,0-233.4,0   c-1.4,0-2.8,0.1-4.1-0.1c-4-0.6-7-4.1-6.9-8.1c0.1-4,3.2-7.3,7.3-7.6c1.4-0.1,2.7-0.1,4.1-0.1C80.3,159,119.2,159,158.1,159z" fill="#E18E26"/>
	<path d="M157.4,270.7c-7.5,0-15,0-22.4,0c-6.1,0-9.2-3.1-9.2-9.2c-0.1-9.8-0.1-19.7,0-29.5c0-6.1,3.2-9.1,9.3-9.1   c15.1,0,30.2,0,45.2,0c6.3,0,9.4,3,9.4,9.4c0.1,9.7,0.1,19.4,0,29.2c0,6.3-3.2,9.3-9.5,9.3C172.6,270.7,165,270.7,157.4,270.7z    M157.7,254.8c4.5,0,9,0,13.4,0c1.6,0,2.6-0.1,2.6-2.1c-0.1-4-0.1-8,0-11.9c0-1.7-0.7-2.1-2.2-2.1c-9.1,0-18.2,0.1-27.3,0   c-1.8,0-2.4,0.5-2.4,2.3c0.1,3.7,0.2,7.5,0,11.2c-0.1,2.3,0.8,2.7,2.8,2.6C148.9,254.7,153.3,254.8,157.7,254.8z" fill="#E18E26"/>
</g>
</svg>