<svg xmlns="http://www.w3.org/2000/svg" xmlns:xlink="http://www.w3.org/1999/xlink" version="1.1" id="Layer_1" x="0px" y="0px" viewBox="0 0 354.7 383.8" style="enable-background:new 0 0 354.7 383.8;" xml:space="preserve">
<g>
	<path d="M145.2,383.8c-2.8-2.1-3.5-5-3.4-8.4c0.2-9,0-18,0.1-26.9c0-2.5-0.6-4-2.9-5.3c-5.6-3-10.5-7.1-15-11.6   c-3.3-3.3-3.7-6.6-1.2-9.1c2.5-2.5,5.8-2.1,9.1,1.1c25.3,24.6,64.3,25.5,89.4,1.5c19.3-18.5,25.5-41.2,17.3-66.6   c-8.1-25.4-26.4-40.4-52.8-44.2c-47-6.8-84.8,39.7-69.4,84.6c0.4,1.2,0.9,2.3,1.2,3.5c0.9,3.2-0.3,6-3.1,7.1   c-2.9,1.2-6.1-0.1-7.4-3.2c-3-7.4-4.8-15.2-5.3-23.2c-0.7-11.1,0.8-21.9,5-32.2c0.7-1.7,0.6-2.8-0.8-4.2   c-14.8-14.5-29.4-29.1-44.2-43.7c-4.8-4.8-11.3-4.9-15.7-0.7c-4.5,4.3-4.6,10.6,0,15.7c14.6,16,29.3,32,44,48   c1,1.1,2.1,2.2,2.8,3.5c1.3,2.4,0.8,4.6-1.1,6.5c-1.8,1.7-3.9,2.1-6.2,1c-1.3-0.6-2.2-1.7-3.1-2.7c-14.4-15.7-28.8-31.5-43.3-47.1   c-5.3-5.7-7.8-12-7.8-19.9c0.2-25.9,0.1-51.9,0.1-77.8c0-9.3-6-16.3-14.9-17.7c-4-0.6-5.3,0.4-5.3,4.5c0,16,0,31.9,0,47.9   c0,2.2-0.1,4.3-1.9,5.8c-1.6,1.4-3.5,1.9-5.6,1.1c-2.3-0.9-3.7-2.6-3.7-5.1c-0.1-4.2,0-8.5,0-12.7c0-12.7,0-25.4,0-38.2   c0-7.6,4.4-13.1,11.9-14.5c2.2-0.4,2.6-0.9,2.4-3.2c-2.9-37.2,11-66.4,43.1-85.7C94.7-10.8,141.5,2.2,161,39.5   c10.1,19.4,10.9,39.5,3.2,60c-1.7,4.5-3.1,8.9-2.7,13.8c0.2,2,0.7,3,2.9,2.7c2.5-0.3,5.2-0.3,7.3,0.9c4,2.2,7,0.4,10.2-1.6   c8-4.8,16.5-8.6,25.7-10.9c4-1,6.9,0.3,7.9,3.5c1,3.5-0.8,6.2-4.9,7.3c-8.6,2.3-16.6,5.9-24.3,10.6c21.4,24.2,24.1,50.3,7.7,78.3   c9,2.2,17.4,5.7,25.1,10.9c8.4,5.6,15.5,12.6,21,21c1,1.5,1.5,1.8,2.9,0.4c12-12,24-23.9,36.2-35.8c1.5-1.5,0.9-2.5,0.3-3.9   c-6.1-13.1-15.1-23.6-27-31.8c-6.1-4.1-12.1-8.3-18.1-12.5c-3.5-2.5-4.5-5.7-2.5-8.5c2-2.9,5.2-3.3,8.8-0.7   c7.9,5.5,15.7,11,23.6,16.5c0.9,0.7,1.8,1.2,3,0.9c6.2-1.5,12.5-2.6,18.5-4.4c19.4-5.8,30.6-26.3,25.4-45.8   c-1.8-6.5-7.1-10.6-13.7-10.4c-6.4,0.2-11.3,4.5-12.7,11.1c-0.2,0.9-0.3,1.7-0.4,2.6c-1.2,8.1-9.4,13.1-16.7,9.5   c-10.2-5-20.5-8.8-31.9-9.9c-3.4-0.3-5.4-3.3-4.9-6.4c0.6-3.4,2.8-4.9,6.1-4.7c11.6,0.9,22.5,4.2,32.7,9.6c2.1,1.1,3.3,1.6,3.8-1.6   c2-11.9,10.5-20.3,21.3-21.4c12.2-1.2,21.9,4.8,26.6,16.6c0.1,0.3,0.3,0.7,0.6,1.3c4.6-3.4,9.5-5.7,15.1-6.4   c10-1.4,17.5,4.9,17.5,14.9c0,36.3,0,72.6,0,108.9c0,7.5-2.3,14.2-7,20.1c-5.7,7.1-11.4,14.2-17.1,21.2c-2.7,3.3-6.1,4.1-8.7,2   c-2.9-2.2-2.8-5.5,0.1-9.2c5.3-6.6,10.6-13.2,16-19.8c3.7-4.5,5.5-9.5,5.5-15.4c-0.1-35.4,0-70.8,0-106.3c0-5-1.2-6-6-5   c-8.7,1.7-14.2,8.5-14.2,17.6c0,26.4-0.1,52.9,0,79.3c0,6.4-1.9,12-6.2,16.7c-15.1,16.4-30.2,32.9-45.3,49.3   c-3.6,3.9-8.2,3.5-10.1-0.7c-1.3-2.8,0-5,1.9-7.1c12.6-13.7,25.2-27.4,37.7-41c2.6-2.8,5.3-5.6,7.8-8.6c4.1-4.8,3.9-10.9-0.4-15.1   c-4.2-4.1-10.7-4.2-15.2,0.1c-15.1,14.8-29.9,29.7-45,44.5c-1.2,1.1-1.3,2.1-0.7,3.6c14,35.5-0.9,75.2-33,93.3   c-1.8,1-1.9,2.3-1.9,4c0,9.2-0.1,18.5,0.1,27.7c0.1,3.4-0.6,6.3-3.4,8.4c-1.5,0-3,0-4.5,0c-2.8-2.1-3.5-5-3.5-8.4   c0.2-7.6,0-15.2,0.1-22.8c0-2-0.1-3-2.6-2.2c-14.4,4.4-28.9,4.3-43.3,0.1c-2.5-0.7-2.7,0.1-2.7,2.2c0.1,7.6-0.1,15.2,0.1,22.8   c0.1,3.4-0.6,6.3-3.5,8.4C148.2,383.8,146.7,383.8,145.2,383.8z M140.4,147.5c-1.7-11.1,1.2-19.3,9.1-26c1.3-1.1,1.9-2,1.5-3.7   c-1.6-6.9-0.7-13.6,1.9-20.1c2.4-5.9,4.2-12,4.8-18.3c4.3-42.4-35.5-76.3-76.8-65.5c-37.6,9.8-62.4,49.4-54.7,87.3   c0.3,1.5,1,2.3,2.3,3.1c9.6,5.9,14.3,14.6,14.2,25.9c-0.1,19.1,0,38.2,0,57.2c0,1,0,2.1,0,3.3c11.5-5,20.6-2.5,28.9,6   c12.9,13.2,26.2,26,39.2,39.1c1.9,1.9,2.6,1.9,4.2-0.4c15.4-21.6,36.4-32.6,62.9-32.9c2.3,0,3.6-0.7,4.9-2.4   c16.4-21.9,12.9-52.1-8.2-69.5c-6.5-5.4-15.8-4.2-20.8,2.5c-4,5.3-2.8,11.1-1.3,16.8c0.9,3.5,4.5,2.9,6.8,4.3   c1.1,0.7,2.5,1.1,3.7,1.8c2.6,1.6,3.8,3.9,2.6,7c-1.2,2.9-3.9,4.2-7,3.1c-1.6-0.5-3.2-1.3-4.8-2c-17.4-7.6-35.6-11-54.6-9.4   c-7.6,0.7-15.1,1.7-22.7,2.5c-4,0.4-6.5-1.2-7-4.4c-0.5-3.5,1.3-6.1,5.4-6.6c11.5-1.5,23-3.4,34.6-3.2   C119.8,143.3,130,144.6,140.4,147.5z M311.8,152.1c-9.8,11.4-22.3,15.8-36.3,18c4.9,5.9,9.2,11.4,12.1,17.8   c1.3,2.8,2.6,3.3,5.2,1.8c1.4-0.8,3.1-0.9,4.6-1.3c5-1.1,9.7,0.4,14.3,2.1C311.8,177.8,311.8,165.4,311.8,152.1z" fill="#E18E26"/>
	<path d="M77.8,383.8c-3-2.1-4-4.8-3.2-8.6c1.5-7.6,2.7-15.2,3.6-22.9c1.5-11.6-1.8-21.9-9.1-31c-13.2-16.4-26.4-32.8-39.7-49.2   c-7.4-9.1-14.7-18.2-22.1-27.3c-4.9-6-7.4-12.9-7.4-20.7c0-10.2,0-20.4,0-30.7c0-4.6,2.1-7.3,5.7-7.2c3.5,0.1,5.5,2.7,5.5,7.4   c0,9.7,0.1,19.5,0,29.2c-0.1,6,1.8,11.1,5.6,15.8c19.4,23.9,38.3,48.2,58.1,71.7C88,326,92.5,343.1,88,362.8c-0.9,4-1.4,8.1-2,12.2   c-0.4,3.3-1.2,6.4-3.8,8.8C80.8,383.8,79.3,383.8,77.8,383.8z" fill="#E18E26"/>
	<path d="M272.4,383.8c-2.2-2.1-3.2-4.7-3.6-7.7c-1-7.3-2.2-14.5-3.3-21.8c-2-14,1.3-26.8,9.8-38c9.3-12,19-23.7,28.5-35.5   c2.7-3.3,6.1-3.8,8.7-1.6c2.5,2.1,2.5,5.5,0,8.6c-7.7,9.6-15.1,19.6-23.3,28.7c-11.9,13.1-15.4,27.9-11.4,45   c1.2,5,1.6,10.1,2.6,15.1c0.6,3.3-1.2,5.3-3.5,7.1C275.4,383.8,273.9,383.8,272.4,383.8z" fill="#E18E26"/>
	<path d="M177.3,234.7c3.9,0,7.7,0,11.6,0c5,0,6.9,1.9,7,7.1c0.1,5.1,0.1,10.2,0,15.3c-0.1,2,0.6,2.5,2.5,2.5   c5.2-0.1,10.5-0.1,15.7,0c4.6,0,6.6,2.1,6.7,6.6c0.1,7.9,0.1,15.7,0,23.6c0,4.6-2,6.6-6.6,6.6c-5.2,0.1-10.5,0.1-15.7,0   c-2,0-2.6,0.6-2.6,2.5c0.1,5.1,0.1,10.2,0,15.3c-0.1,5.1-1.9,7.1-7,7.1c-7.6,0.1-15.2,0.1-22.8,0c-5.3,0-7.1-2-7.1-7.4   c0-5-0.1-10,0-15c0.1-2.2-0.7-2.7-2.8-2.7c-5.2,0.1-10.5,0.1-15.7,0c-4.4-0.1-6.4-2.1-6.4-6.5c-0.1-8-0.1-16,0-23.9   c0-4.3,2.2-6.3,6.5-6.4c5.4-0.1,10.7-0.1,16.1,0c1.8,0,2.3-0.5,2.3-2.3c-0.1-5.2-0.1-10.5,0-15.7c0.1-4.9,1.9-6.8,6.8-6.9   C169.5,234.7,173.4,234.7,177.3,234.7z M156,270.8c0,0.1,0,0.2,0,0.2c-3.5,0-8.1-1.4-10.1,0.4c-2.3,2-0.5,6.8-0.7,10.3   c0,0.2,0,0.5,0,0.7c-0.3,2.1,0.5,2.8,2.6,2.7c4.6-0.2,9.2,0,13.8,0c6.9,0,8.4,1.5,8.4,8.2c0,4.7,0.1,9.5,0,14.2   c0,1.9,0.5,2.7,2.5,2.6c3.1-0.1,6.2-0.2,9.3,0c2.2,0.1,2.8-0.7,2.7-2.8c-0.1-4.7-0.1-9.5,0-14.2c0-6.4,1.6-8,7.9-8   c4.9,0,9.7-0.1,14.6,0c2,0.1,2.6-0.6,2.5-2.5c-0.2-2.9-0.2-5.7,0-8.6c0.2-2.5-0.4-3.5-3.2-3.3c-5.1,0.2-10.2,0.1-15.3,0.1   c-4.4-0.1-6.3-2-6.4-6.4c-0.1-2.4,0.1-4.7,0-7.1c-0.2-3.7,1.6-8.8-0.8-10.7c-2.3-1.9-7.1-0.4-10.9-0.6c-2.3-0.1-3,0.6-2.9,2.9   c0.2,5.2,0.1,10.5,0,15.7c-0.1,4.2-2.1,6.1-6.2,6.2C161.2,270.8,158.6,270.8,156,270.8z" fill="#E18E26"/>
	<path d="M80.5,74.6c2.4-0.1,5,0.5,7.5,1.7c2.9,1.4,4.2,4.5,3,7.2c-1.3,2.9-3.6,4-6.7,3.3c-1.8-0.4-3.6-1.2-5.5-0.8   c-3.5,0.7-5.3,3-6.2,6.2c-2,7.3,0.7,13.6,7.7,17.6c2.9,1.6,4.3,3.8,3.5,7c-0.8,3.2-4.4,4.8-7.8,3.4c-14.2-5.6-19.8-26.6-10.5-38.6   C69,77.2,74.2,74.6,80.5,74.6z" fill="#E18E26"/>
	<path d="M121.4,99.6c4.8,0.1,9.4,0.8,13.7,3.1c3.2,1.7,4.3,4.6,3.1,7.5c-1.3,2.9-4.5,4.1-7.9,2.6c-2.9-1.3-5.9-1.9-9-1.9   c-5.5,0-8.1-1.8-8.2-5.5C113,101.6,115.8,99.6,121.4,99.6z" fill="#E18E26"/>
</g>
</svg>