<svg xmlns="http://www.w3.org/2000/svg" xmlns:xlink="http://www.w3.org/1999/xlink" version="1.1" id="Layer_1" x="0px" y="0px" viewBox="0 0 1000 1000" style="enable-background:new 0 0 1000 1000;" xml:space="preserve">
<style type="text/css">
	.st0{fill:#E18E26;}
</style>
<g>
	<path class="st0" d="M637.7,326.6c-8.8,0-16-7.2-16-16v-37.4C608.9,268,567,260.3,500,260.3c-67,0-108.9,7.7-121.7,12.9v37.4   c0,8.8-7.2,16-16,16c-8.8,0-16-7.2-16-16V267c0-25.6,51.7-38.6,153.6-38.6c101.9,0,153.6,13,153.6,38.6v43.7   C653.6,319.5,646.5,326.6,637.7,326.6z" fill="#E18E26"/>
	<path class="st0" d="M366.7,442.8c-3.7,0-7.3-1-10.6-3c-6.1-3.7-9.7-10.2-9.7-17.3v-43.5c0-8.8,7.2-16,16-16c8.8,0,16,7.2,16,16   V406c30.9-8.3,82-11.4,121.7-11.4c39.7,0,90.8,3.1,121.7,11.4v-29.3c0-8.8,7.2-16,16-16c8.8,0,16,7.2,16,16v45.8   c0,7.1-3.6,13.6-9.7,17.3c-6.2,3.7-13.7,4-20.1,0.7c-13.5-7-60.4-14-123.8-14c-63.5,0-110.3,7-123.8,14   C373.2,442,369.9,442.8,366.7,442.8z" fill="#E18E26"/>
	<path class="st0" d="M500,495.9c-33.7,0-66.4-2-92.1-5.7c-8.7-1.2-14.8-9.3-13.6-18.1c1.2-8.7,9.3-14.8,18.1-13.6   c48.5,6.9,126.7,6.9,175.2,0c8.8-1.3,16.8,4.8,18.1,13.6c1.2,8.7-4.8,16.8-13.6,18.1C566.4,493.9,533.7,495.9,500,495.9z" fill="#E18E26"/>
	<path class="st0" d="M268.9,392.7c-31.5,0-57.1-25.6-57.1-57.1c0-31.5,25.6-57.1,57.1-57.1c18,0,34.5,8.2,45.4,22.5   c5.4,7,4,17-3,22.4c-7,5.4-17,4-22.4-3c-4.8-6.3-12.1-9.9-20-9.9c-13.9,0-25.2,11.3-25.2,25.2c0,13.9,11.3,25.1,25.2,25.1   c8.3,0,16.1-4.1,20.8-11c5-7.3,14.9-9.1,22.2-4.1c7.3,5,9.1,14.9,4.1,22.2C305.4,383.4,287.7,392.7,268.9,392.7z" fill="#E18E26"/>
	<path class="st0" d="M362.3,326.6h-60.8c-8.8,0-16-7.2-16-16c0-8.8,7.2-16,16-16h60.8c8.8,0,16,7.2,16,16   C378.3,319.5,371.2,326.6,362.3,326.6z" fill="#E18E26"/>
	<path class="st0" d="M731.1,392.7c-19,0-36.7-9.4-47.3-25.2c-4.9-7.3-3-17.2,4.3-22.2c7.3-4.9,17.2-3,22.2,4.3   c4.7,7,12.5,11.1,20.9,11.1c13.9,0,25.2-11.3,25.2-25.1c0-13.9-11.3-25.2-25.2-25.2c-7.9,0-15.2,3.6-20,9.9c-5.4,7-15.4,8.4-22.4,3   c-7-5.4-8.4-15.4-3-22.4c10.9-14.3,27.5-22.5,45.4-22.5c31.5,0,57.1,25.6,57.1,57.1C788.2,367.1,762.6,392.7,731.1,392.7z" fill="#E18E26"/>
	<path class="st0" d="M698.4,326.6h-60.7c-8.8,0-16-7.2-16-16c0-8.8,7.2-16,16-16h60.7c8.8,0,16,7.2,16,16   C714.4,319.5,707.2,326.6,698.4,326.6z" fill="#E18E26"/>
	<path class="st0" d="M589.8,250.4c-8.8,0-16-7.2-16-16v-36c0-8.8,7.2-16,16-16c8.8,0,16,7.2,16,16v36   C605.8,243.3,598.7,250.4,589.8,250.4z" fill="#E18E26"/>
	<path class="st0" d="M410.2,250.4c-8.8,0-16-7.2-16-16v-36c0-8.8,7.2-16,16-16c8.8,0,16,7.2,16,16v36   C426.1,243.3,419,250.4,410.2,250.4z" fill="#E18E26"/>
	<path class="st0" d="M637.7,98.3c-8.8,0-16-7.2-16-16V44.9C608.9,39.6,567,31.9,500,31.9c-67,0-108.9,7.7-121.7,12.9v37.4   c0,8.8-7.2,16-16,16c-8.8,0-16-7.2-16-16V38.6C346.4,13,398.1,0,500,0c101.9,0,153.6,13,153.6,38.6v43.7   C653.6,91.1,646.5,98.3,637.7,98.3z" fill="#E18E26"/>
	<path class="st0" d="M633.3,214.4c-3.2,0-6.4-0.8-9.4-2.3c-13.5-7-60.4-14-123.9-14c-63.5,0-110.3,7-123.8,14   c-6.5,3.3-14,3.1-20.1-0.7c-6.1-3.7-9.7-10.2-9.7-17.3v-43.5c0-8.8,7.2-16,16-16c8.8,0,16,7.2,16,16v27.1   c30.8-8.3,82-11.4,121.7-11.4c39.7,0,90.8,3.1,121.7,11.4v-29.3c0-8.8,7.2-16,16-16c8.8,0,16,7.1,16,16v45.8   c0,7.1-3.6,13.6-9.7,17.3C640.7,213.4,637,214.4,633.3,214.4z" fill="#E18E26"/>
	<path class="st0" d="M268.9,164.3c-31.5,0-57.1-25.6-57.1-57.1c0-31.5,25.6-57.1,57.1-57.1c18,0,34.5,8.2,45.4,22.5   c5.4,7,4,17-3,22.4c-7,5.4-17,4-22.4-3c-4.8-6.3-12.1-9.9-20-9.9c-13.9,0-25.2,11.3-25.2,25.2c0,13.9,11.3,25.2,25.2,25.2   c8.3,0,16.1-4.1,20.8-11c5-7.3,14.9-9.1,22.2-4.1c7.3,5,9.1,14.9,4.1,22.2C305.4,155,287.7,164.3,268.9,164.3z" fill="#E18E26"/>
	<path class="st0" d="M362.3,98.3h-60.8c-8.8,0-16-7.2-16-16s7.2-16,16-16h60.8c8.8,0,16,7.2,16,16S371.2,98.3,362.3,98.3z" fill="#E18E26"/>
	<path class="st0" d="M731.1,164.3c-19,0-36.7-9.4-47.3-25.2c-4.9-7.3-3-17.2,4.3-22.2c7.3-4.9,17.2-3,22.2,4.3   c4.7,7,12.5,11.1,20.9,11.1c13.9,0,25.2-11.3,25.2-25.2c0-13.9-11.3-25.2-25.2-25.2c-7.9,0-15.2,3.6-20,9.9c-5.4,7-15.4,8.4-22.4,3   c-7-5.4-8.4-15.4-3-22.4c10.9-14.3,27.5-22.5,45.4-22.5c31.5,0,57.1,25.6,57.1,57.1C788.2,138.7,762.6,164.3,731.1,164.3z" fill="#E18E26"/>
	<path class="st0" d="M698.4,98.3h-60.7c-8.8,0-16-7.2-16-16s7.2-16,16-16h60.7c8.8,0,16,7.2,16,16S707.2,98.3,698.4,98.3z" fill="#E18E26"/>
	<path class="st0" d="M797,633.5c-2.2,0-4.4-0.4-6.5-1.4c-8.1-3.6-11.7-13-8.1-21.1l49.9-112.9c3.6-8.1,13-11.7,21.1-8.1   c8.1,3.6,11.7,13,8.1,21.1L811.6,624C809,630,803.1,633.5,797,633.5z" fill="#E18E26"/>
	<path class="st0" d="M590.3,905.1c-7,0-13.5-4.7-15.4-11.8c-8.6-31.6-10.9-64.1-6.7-96.7c4.2-33,14.8-64.3,31.5-93l99.5-171.5   c15.3-26.3,39.9-45.1,69.3-52.9c29.4-7.8,60.1-3.7,86.4,11.6c7.6,4.4,10.2,14.2,5.8,21.8c-4.4,7.6-14.2,10.2-21.8,5.8   c-18.9-11-41-14-62.2-8.3c-21.2,5.6-38.9,19.1-49.9,38.1l-99.5,171.5c-14.5,25-23.8,52.3-27.4,81c-3.6,28.3-1.6,56.6,5.9,84.2   c2.3,8.5-2.7,17.3-11.2,19.6C593.1,904.9,591.7,905.1,590.3,905.1z" fill="#E18E26"/>
	<path class="st0" d="M834.9,892.8l15.5-3.7l-15.7,3c-15.1-63.3-5.4-128.6,27.1-184.5l36.8-63.5c2.5-4.2,4.8-8.5,7.1-12.9   c31.1-59.6,40.7-131.4,27.2-202.2l-40.3-210.3c-0.2-0.9-0.3-1.8-0.3-2.7c-0.2-10.6-5-20.6-13.2-27.4c-8.2-6.8-18.9-9.7-29.4-7.9   c-17.1,2.8-30,18.8-30.5,37.3l43.5,284.3c1.3,8.7-4.7,16.9-13.4,18.2c-8.7,1.3-16.9-4.6-18.2-13.4l-43.7-285.6   c-0.1-0.8-0.2-1.6-0.2-2.4c0-34.4,24.5-64.5,57.2-69.9c19.6-3.3,39.8,2.1,55.1,14.9c15,12.4,23.9,30.5,24.7,49.9l40,209   c14.9,77.8,4.2,157-30.2,223c-2.5,4.8-5.1,9.5-7.8,14.2l-36.9,63.5c-28.4,48.8-36.8,105.8-23.8,160.3l-15.2,5.1L834.9,892.8z" fill="#E18E26"/>
	<path class="st0" d="M203,633.5c-6.1,0-12-3.5-14.6-9.5l-49.9-112.9c-3.6-8.1,0.1-17.5,8.1-21.1c8.1-3.5,17.5,0.1,21.1,8.1   l49.9,112.9c3.6,8.1-0.1,17.5-8.1,21.1C207.4,633.1,205.2,633.5,203,633.5z" fill="#E18E26"/>
	<path class="st0" d="M409.7,905.1c-1.4,0-2.8-0.2-4.2-0.6c-8.5-2.3-13.5-11.1-11.2-19.6c7.5-27.5,9.5-55.9,5.9-84.2   c-3.7-28.7-12.9-56-27.4-81l-99.5-171.5c-11-18.9-28.7-32.5-49.9-38.1c-21.2-5.6-43.2-2.7-62.2,8.3c-7.6,4.4-17.4,1.8-21.8-5.8   c-4.4-7.6-1.8-17.4,5.8-21.8c26.3-15.3,57-19.4,86.4-11.6c29.4,7.8,54,26.6,69.3,52.9l99.5,171.5c16.7,28.8,27.3,60.1,31.5,93   c4.2,32.5,1.9,65.1-6.8,96.7C423.1,900.4,416.7,905.1,409.7,905.1z" fill="#E18E26"/>
	<path class="st0" d="M149.4,904.3c-1.1,0-2.3-0.1-3.4-0.4c-8.6-2-14.1-9.9-12-18.5c13.3-56,4.8-112.9-23.5-161.8l-36.8-63.5   c-2.7-4.7-5.3-9.4-7.8-14.2c-34.4-66-45.1-145.2-30.2-223l40-209c0.8-19.4,9.7-37.5,24.7-49.9c15.3-12.7,35.4-18.1,55.1-14.9   c32.7,5.5,57.3,35.5,57.2,69.9c0,0.8-0.1,1.6-0.2,2.4l-43.7,285.6c-1.3,8.7-9.5,14.7-18.2,13.4c-8.7-1.3-14.7-9.5-13.4-18.2   L180.8,218c-0.5-18.5-13.4-34.4-30.5-37.2c-10.6-1.8-21.2,1.1-29.4,7.9c-8.2,6.8-13,16.8-13.2,27.4c0,0.9-0.1,1.8-0.3,2.7L67,429.1   c-13.6,70.7-3.9,142.6,27.2,202.2c2.3,4.4,4.6,8.7,7.1,12.9l36.8,63.4c32.5,56,42.2,121.2,27.3,183.8   C163.7,898.8,156.8,904.3,149.4,904.3z" fill="#E18E26"/>
	<path class="st0" d="M433.3,1000H137.6c-15.9,0-28.8-12.9-28.8-28.8v-69.3c0-15.8,12.9-28.8,28.8-28.8h150.1c8.8,0,16,7.1,16,16   s-7.2,16-16,16H140.8v63h289.3v-63h-82.8c-8.8,0-16-7.2-16-16s7.2-16,16-16h85.9c15.9,0,28.8,12.9,28.8,28.8v69.3   C462,987.1,449.1,1000,433.3,1000z" fill="#E18E26"/>
	<path class="st0" d="M862.4,1000H566.7c-15.9,0-28.8-12.9-28.8-28.8v-69.3c0-15.8,12.9-28.8,28.8-28.8h73.5c8.8,0,16,7.1,16,16   s-7.2,16-16,16h-70.3v63h289.3v-63h-153c-8.8,0-16-7.2-16-16s7.2-16,16-16h156.2c15.9,0,28.8,12.9,28.8,28.8v69.3   C891.1,987.1,878.2,1000,862.4,1000z" fill="#E18E26"/>
</g>
</svg>