<svg xmlns="http://www.w3.org/2000/svg" xmlns:xlink="http://www.w3.org/1999/xlink" version="1.1" id="Layer_1" x="0px" y="0px" viewBox="0 0 369.8 351.7" style="enable-background:new 0 0 369.8 351.7;" xml:space="preserve">
<g>
	<path d="M73.9,135.2c-16.5-7.4-27.2-19.4-31.4-36.8c-4-16.5-0.7-32.1,6.2-47.2C59.1,28.7,75,12.1,99.1,4.3c15.5-5,31.3-4.3,47-1.4   c48,8.9,80.4,37.7,101.6,80.4c10.8,21.8,17,45.1,19.7,69.3c0.1,0.9,0.4,1.7,0.3,2.6c-0.1,2.5,1,2.9,3.3,2.9   c36.2,0,64.5,15.2,84,45.7c36.3,56.9,2.3,134.3-64.1,146.1c-33.2,5.9-62.1-3.2-86.4-26.5c-1.9-1.8-2.9-1.5-4.9-0.2   c-33.3,22.1-69.7,28.3-108.5,19.9c-18.9-4.1-33.5-14.3-41.2-32.8c-0.2-0.6-0.3-1.5-1.3-1.7c-0.7,1.2-0.3,2.4-0.3,3.6   c0,11,0.1,21.9,0.1,32.9c0,5-1.9,6.8-6.8,6.8c-11.6-0.1-23.2-0.1-34.8-0.2c-5.2,0-6.9-1.7-6.9-6.9c0-60.1,0-120.2,0-180.3   c0-16.7,12-28.8,28.7-28.9c13.7-0.1,27.4,0,41.1,0C71.2,135.2,72.6,135.2,73.9,135.2z M201.1,189.7c-1.1,0-1.6-0.1-2,0   c-2.8,0.6-5.6,1.1-8.4,1.8c-4.7,1.2-7.3,0.2-8.3-3.1c-1-3.4,0.8-5.8,5.4-7c7.5-2,15.1-3.2,22.9-3.1c1.7,0,3.1-0.2,4.5-1.3   c12-8.9,25.3-14.8,40-17.4c1.9-0.3,2.3-1.2,2.1-3c-2.8-24.9-8.8-49-20.3-71.4c-20.3-39.7-51-65.6-96.1-72.6   c-14.8-2.3-29.7-2.8-43.7,3.5C68.5,29.3,53.5,52.7,51.4,83.5c-1.9,28.8,23.5,49,51.3,42.4c10.9-2.6,19.8-8.5,27.6-16.3   c3.4-3.4,6.2-3.8,8.7-1.2c2.4,2.5,2,5.3-1.4,8.7c-5,5.1-10.5,9.5-16.8,12.9c-3.2,1.7-6.5,3.2-10.8,5.3c8.3,0,15.5,0,22.6,0   c1.6,0,3.3-0.1,4.9,0.1c3.1,0.4,5,2.2,4.9,5.5c-0.2,3.1-2.1,4.7-5.1,4.9c-1.1,0.1-2.2,0-3.4,0c-34.2,0-68.3,0.3-102.5-0.1   c-14.1-0.2-21.2,9.1-21,20.8c0.4,35,0.2,70.1,0.2,105.1c0,22.1,0,44.1-0.1,66.2c0,2.6,0.6,3.3,3.3,3.3c6.6-0.2,13.2-0.2,19.8,0.1   c3.5,0.2,4.6-0.6,4.6-4.4c-0.3-26.1-0.4-52.1-0.4-78.2c0-20.3,13.9-34.4,34.2-34.5c21.2-0.1,42.4-0.1,63.6-0.1   c4.3,0,6.7,1.9,6.7,5.3c0,3.3-2.4,5.2-6.8,5.2c-9,0-18,0-26.9,0c-2.5,0-5,0-7.5,0c11.2,5.7,19.6,13.6,24,25.3   c1.3,3.4,0.3,6.4-2.5,7.6c-2.9,1.2-5.8-0.1-7.2-3.5c-6.3-15.2-18.4-21.7-34-22.3c-18.6-0.7-31.3,11.8-31.2,30.5   c0.1,12.5,4.9,23.7,9.9,34.9c6.1,13.4,16.5,21.1,30.3,25c16.5,4.6,33.2,5,50,2.8c19.3-2.5,37.1-9.3,53.3-20.1   c1.7-1.2,1.6-1.8,0.5-3.4c-16.3-23.2-21.7-48.8-16.1-76.6c0.3-1.4,0.7-2.8-0.5-4.2c-2.5-3.1-4.3-6.7-5.9-10.4   c-3.1-7-7.5-11.9-15.9-12c-3.4,0-5.4-2.8-4.9-5.8c0.5-3.2,2.5-4.6,5.8-4.5c9.8,0.2,17.2,4.5,22,13.1c1.4,2.5,2.7,5,4.2,7.9   C187.4,207.9,193.3,198.5,201.1,189.7z M272.7,341.2c47.4,0.1,86.4-38.7,86.5-86.2c0.1-47.6-38.3-86.2-86.1-86.5   c-47.5-0.3-86.5,38.4-86.7,85.9C186.2,302,224.9,341,272.7,341.2z" fill="#E18E26"/>
	<path d="M124.4,36.1c28.6,1.1,52.8,11.9,72.1,33.2c2,2.2,3.1,4.6,1.4,7.4c-1.3,2.2-3.5,2.7-5.9,2.1c-1.6-0.4-2.5-1.6-3.5-2.7   c-14-15.5-31.3-25.1-52-28.4c-6.3-1-12.6-1.8-19-0.8c-9.8,1.5-17.1,6.9-22.6,15.1c-0.8,1.2-1.4,2.6-2.8,3.4   c-2.1,1.3-4.3,1.3-6.2-0.3c-2.2-1.8-2.6-4.3-1.1-6.7C91.6,47.3,101,39.7,114,37C117.4,36.2,120.9,36.1,124.4,36.1z" fill="#E18E26"/>
	<path d="M203.8,138.8c-3.6,0-6.4,0-9.3,0.5c-5.9,1-10.3,4.1-13.3,9.2c-2.7,4.6-4.6,9.6-7.7,14c-5,7.1-12.2,10-20.5,10.2   c-3.1,0.1-5.5-2.2-5.4-5c0.1-3,1.7-5.2,4.7-5.2c8.6-0.2,13.3-5.1,16.3-12.5c0.3-0.7,0.7-1.3,1-2c7-16,18.8-21.4,38.7-19.4   c3.5,0.4,5.3,2.7,5,5.8c-0.3,3-2.5,4.7-6.1,4.6C205.9,139,204.5,138.8,203.8,138.8z" fill="#E18E26"/>
	<path d="M279.1,185.7c12.8,0.1,23,10.5,22.8,23.2c-0.2,12.8-10.5,22.8-23.3,22.7c-12.5-0.1-22.7-10.5-22.6-23   C256,195.8,266.3,185.6,279.1,185.7z M291.4,209c0.2-6.8-5.1-12.5-11.8-12.8c-7.1-0.3-12.9,5-13.1,11.9c-0.3,6.9,5.2,12.8,12,13   C285.5,221.3,291.2,216,291.4,209z" fill="#E18E26"/>
	<path d="M333,285.4c0.1,12.6-10.4,23.1-23,23.1c-12.6,0-23.1-10.5-23-23.1c0.1-12.5,10.3-22.8,22.8-23   C322.3,262.3,332.9,272.8,333,285.4z M310,298.1c6.8,0,12.6-5.9,12.5-12.7c-0.1-6.9-6-12.6-12.8-12.4c-6.8,0.2-12.3,5.8-12.3,12.5   C297.4,292.4,303.2,298.1,310,298.1z" fill="#E18E26"/>
	<path d="M257.6,291.3c0,12.7-10.4,23.2-23,23.1c-12.6,0-22.9-10.5-22.9-23.2c0.1-12.5,10.3-22.8,22.8-22.9   C247.1,268.2,257.6,278.6,257.6,291.3z M247.1,291.3c0-7-5.8-12.6-12.7-12.4c-6.8,0.2-12.2,5.7-12.2,12.5c0,7,5.6,12.7,12.5,12.6   C241.6,303.9,247.1,298.2,247.1,291.3z" fill="#E18E26"/>
	<path d="M223.8,216.5c9.3,0,16.9,7.6,17,16.8c0,9.2-7.6,16.9-16.9,16.9c-9.4,0-16.8-7.5-16.9-16.8C207,224,214.5,216.5,223.8,216.5   z M230.3,233.4c0-3.4-3-6.3-6.4-6.3c-3.6,0-6.3,2.8-6.3,6.4c0,3.6,2.8,6.4,6.3,6.4C227.3,239.7,230.3,236.8,230.3,233.4z" fill="#E18E26"/>
	<path d="M323.6,214.9c9.4-0.1,16.9,7.3,16.9,16.7c0,9.3-7.4,17-16.7,17c-9.2,0.1-16.9-7.6-17-16.8   C306.8,222.6,314.3,215,323.6,214.9z M330.1,231.8c0-3.6-2.7-6.3-6.3-6.4c-3.6,0-6.4,2.7-6.5,6.2c0,3.4,2.9,6.5,6.3,6.5   C327.1,238.2,330.1,235.3,330.1,231.8z" fill="#E18E26"/>
	<path d="M283.9,254.7c0.1,9.3-7.4,17-16.7,17.1c-9.2,0.1-16.9-7.6-17.1-16.8c-0.1-9.2,7.5-16.9,16.8-17   C276.3,237.9,283.8,245.3,283.9,254.7z M266.9,261.2c3.5,0.1,6.4-2.8,6.5-6.4c0-3.5-2.5-6.2-6-6.4c-3.6-0.2-6.6,2.5-6.7,6.1   C260.5,258,263.5,261.1,266.9,261.2z" fill="#E18E26"/>
</g>
</svg>